<svg width="336" height="192" viewBox="0 0 336 192" fill="none" xmlns="http://www.w3.org/2000/svg">
<g clip-path="url(#clip0_1214_1515)">
<rect width="336" height="192" fill="black"/>
<path d="M265.45 72.35H260.163C259.694 72.3688 259.3 72.5375 258.981 72.8562C258.663 73.175 258.503 73.5688 258.503 74.0375V74.5156L258.222 74.5438V71C258.409 71.075 258.691 71.15 259.066 71.225C259.459 71.3 259.891 71.3656 260.359 71.4219C260.828 71.4781 261.259 71.5063 261.653 71.5063H271.075C271.488 71.5063 271.919 71.4781 272.369 71.4219C272.838 71.3656 273.269 71.3 273.663 71.225C274.056 71.15 274.338 71.075 274.506 71V74.5438L274.225 74.5156V74.0375C274.225 73.5688 274.056 73.175 273.719 72.8562C273.4 72.5375 273.016 72.3688 272.566 72.35H267.278V89.1687C267.297 89.6563 267.475 90.0781 267.813 90.4344C268.169 90.7719 268.591 90.9406 269.078 90.9406H269.444V91.2219H263.284V90.9406H263.65C264.138 90.9406 264.55 90.7719 264.888 90.4344C265.244 90.0781 265.431 89.6563 265.45 89.1687V72.35Z" fill="white"/>
<path d="M247.108 72.4063V81.0969H251.862C252.237 81.0781 252.555 80.9375 252.818 80.675C253.08 80.3938 253.212 80.0656 253.212 79.6906V79.2969H253.493V83.7406H253.212V83.3188C253.212 82.9438 253.08 82.625 252.818 82.3625C252.555 82.0813 252.237 81.9406 251.862 81.9406H247.108V90.35H251.13C252.124 90.35 252.93 90.2 253.549 89.9C254.187 89.5813 254.702 89.1406 255.096 88.5781C255.49 88.0156 255.837 87.3781 256.137 86.6656H256.418L254.787 91.2219H243.115V90.9406H243.48C243.968 90.9406 244.38 90.7719 244.718 90.4344C245.074 90.0781 245.262 89.6563 245.28 89.1688V73.5875C245.28 73.1 245.102 72.6875 244.746 72.35C244.39 71.9938 243.968 71.8156 243.48 71.8156H243.143L243.115 71.5344H251.271C251.683 71.5344 252.115 71.5063 252.565 71.45C253.033 71.3938 253.465 71.3281 253.858 71.2531C254.252 71.1781 254.533 71.1031 254.702 71.0281V74.5719H254.421V74.0656C254.421 73.6156 254.262 73.2313 253.943 72.9125C253.685 72.6394 253.378 72.4706 253.022 72.4063H247.108Z" fill="white"/>
<path d="M229.524 81.4344L236.185 73.0781C236.407 72.771 236.437 72.4814 236.274 72.2094C236.124 71.9281 235.861 71.7875 235.486 71.7875H235.205V71.5344H241.14V71.7875H241.027C240.408 71.7875 239.827 71.9094 239.283 72.1531C238.871 72.3445 238.505 72.5935 238.186 72.9004L231.378 80.7552L239.058 89.7875C239.452 90.1625 239.846 90.4438 240.24 90.6313C240.652 90.8188 241.149 90.9219 241.73 90.9406V91.2219H240.521C240.333 91.2219 240.061 91.2125 239.705 91.1938C239.368 91.1563 238.993 91.0906 238.58 90.9969C238.186 90.8844 237.783 90.725 237.371 90.5188C236.977 90.2938 236.621 89.9938 236.302 89.6188L235.796 89.0281C235.477 88.6344 235.055 88.1281 234.53 87.5094C234.024 86.8906 233.48 86.2344 232.899 85.5406C232.336 84.8281 231.793 84.1625 231.268 83.5438C230.761 82.925 230.34 82.4188 230.002 82.025L229.524 81.4344Z" fill="white"/>
<path d="M228.624 89.1688V73.5875C228.643 73.1 228.821 72.6875 229.158 72.35C229.515 71.9938 229.936 71.8156 230.424 71.8156H230.79V71.5344H224.63V71.8156H224.996C225.483 71.8156 225.896 71.9938 226.233 72.35C226.59 72.6875 226.777 73.1 226.796 73.5875V89.1688C226.777 89.6563 226.59 90.0781 226.233 90.4344C225.896 90.7719 225.483 90.9406 224.996 90.9406H224.63V91.2219H230.79V90.9406H230.424C229.936 90.9406 229.515 90.7719 229.158 90.4344C228.821 90.0781 228.643 89.6563 228.624 89.1688Z" fill="white"/>
<path d="M221.543 83.0094L221.205 87.425C220.718 88.2313 220.099 88.9531 219.349 89.5906C218.618 90.2094 217.746 90.7063 216.734 91.0813C215.74 91.4375 214.596 91.6156 213.302 91.6156C211.352 91.5969 209.618 91.1656 208.099 90.3219C206.58 89.4781 205.39 88.2969 204.527 86.7781C203.684 85.2406 203.262 83.4313 203.262 81.35C203.262 79.3063 203.684 77.525 204.527 76.0063C205.371 74.4688 206.552 73.2781 208.071 72.4344C209.609 71.5719 211.409 71.1406 213.471 71.1406C214.859 71.1406 216.105 71.3281 217.212 71.7031C218.337 72.0594 219.312 72.5094 220.137 73.0531L220.699 77.0188H220.446C220.034 75.3688 219.19 74.1219 217.915 73.2781C216.64 72.4156 215.159 71.9844 213.471 71.9844C211.821 71.9844 210.387 72.3781 209.168 73.1656C207.968 73.9344 207.03 75.0219 206.355 76.4281C205.699 77.8156 205.371 79.4469 205.371 81.3219C205.371 83.1969 205.699 84.8375 206.355 86.2438C207.03 87.65 207.959 88.7469 209.14 89.5344C210.34 90.3219 211.727 90.7344 213.302 90.7719C214.634 90.7719 215.862 90.5281 216.987 90.0406C218.13 89.5344 219.087 88.7188 219.855 87.5938C220.624 86.45 221.112 84.9219 221.318 83.0094H221.543Z" fill="white"/>
<path d="M185.079 83.9094V73.2219C185.079 72.8094 185.219 72.4719 185.501 72.2094C185.801 71.9469 186.157 71.8156 186.569 71.8156H187.019V71.5344H181.31V71.8156H181.76C182.172 71.8156 182.519 71.9469 182.801 72.2094C183.101 72.4719 183.251 72.8094 183.251 73.2219V84.3031C183.251 85.7656 183.569 87.05 184.207 88.1563C184.863 89.2438 185.772 90.0969 186.935 90.7156C188.116 91.3156 189.485 91.6156 191.041 91.6156C192.56 91.6156 193.891 91.3063 195.035 90.6875C196.179 90.0688 197.06 89.2156 197.679 88.1281C198.316 87.0219 198.635 85.7375 198.635 84.275V73.2219C198.635 72.8094 198.776 72.4719 199.057 72.2094C199.357 71.9469 199.713 71.8156 200.126 71.8156H200.576V71.5344H195.372V71.8156H195.822C196.235 71.8156 196.582 71.9469 196.863 72.2094C197.163 72.4719 197.313 72.8094 197.313 73.2219V84.275C197.313 85.5688 197.051 86.7031 196.526 87.6781C196.001 88.6344 195.269 89.3844 194.332 89.9281C193.394 90.4719 192.297 90.7438 191.041 90.7438C189.86 90.7438 188.819 90.4625 187.919 89.9C187.019 89.3188 186.316 88.5125 185.81 87.4813C185.322 86.45 185.079 85.2594 185.079 83.9094Z" fill="white"/>
<path fill-rule="evenodd" clip-rule="evenodd" d="M170.709 71.5344C172.021 71.5344 173.127 71.7313 174.027 72.125C174.946 72.5188 175.64 73.0719 176.109 73.7844C176.577 74.4781 176.812 75.2938 176.812 76.2313C176.812 77.0188 176.662 77.7125 176.362 78.3125C176.062 78.8938 175.677 79.3719 175.209 79.7469C174.74 80.1031 174.243 80.3563 173.718 80.5063C174.712 80.6563 175.565 80.9844 176.277 81.4906C177.009 81.9969 177.562 82.6344 177.937 83.4031C178.33 84.1531 178.527 84.9969 178.527 85.9344C178.527 86.9844 178.274 87.9125 177.768 88.7188C177.262 89.5063 176.512 90.125 175.518 90.575C174.543 91.0063 173.362 91.2219 171.974 91.2219H165.112L165.14 90.9406H165.477C165.965 90.9406 166.387 90.7719 166.743 90.4344C167.099 90.0781 167.277 89.6563 167.277 89.1688V73.5875C167.277 73.1 167.099 72.6875 166.743 72.35C166.387 71.9938 165.965 71.8156 165.477 71.8156H165.14L165.112 71.5344H170.709ZM171.862 90.2094H169.105V72.4344H170.596C171.496 72.4344 172.246 72.5938 172.846 72.9125C173.465 73.2125 173.924 73.6625 174.224 74.2625C174.543 74.8625 174.702 75.5844 174.702 76.4281C174.702 77.3281 174.543 78.0594 174.224 78.6219C173.905 79.1656 173.502 79.5781 173.015 79.8594C172.527 80.1406 172.021 80.3281 171.496 80.4219C170.971 80.5156 170.493 80.5625 170.062 80.5625V80.8156C170.737 80.8156 171.44 80.8813 172.171 81.0125C172.921 81.125 173.615 81.35 174.252 81.6875C174.89 82.025 175.405 82.5219 175.799 83.1781C176.212 83.8344 176.418 84.6875 176.418 85.7375C176.418 86.675 176.24 87.4813 175.884 88.1563C175.527 88.8313 175.012 89.3469 174.337 89.7031C173.662 90.0406 172.837 90.2094 171.862 90.2094Z" fill="white"/>
<path d="M146.64 71.5344H139.047V71.8156H139.412C139.9 71.8156 140.312 71.9938 140.65 72.35C141.006 72.6875 141.194 73.1 141.212 73.5875V89.1688C141.194 89.6563 141.006 90.0781 140.65 90.4344C140.312 90.7719 139.9 90.9406 139.412 90.9406H139.047V91.2219H145.178V90.9406H144.84C144.353 90.9406 143.931 90.7719 143.575 90.4344C143.219 90.0781 143.04 89.6563 143.04 89.1688V72.4063H144.897C145.459 72.3875 146.003 72.3969 146.528 72.4344C147.578 72.4906 148.412 72.9031 149.031 73.6719C149.669 74.4219 149.997 75.4344 150.015 76.7094C150.034 77.0094 150.025 77.3188 149.987 77.6375C149.95 77.9375 149.903 78.1906 149.847 78.3969C149.584 79.2406 149.2 79.8688 148.694 80.2813C148.187 80.6938 147.644 80.9656 147.062 81.0969C146.481 81.2281 145.947 81.3031 145.459 81.3219C145.047 81.3406 144.69 81.35 144.39 81.35L143.969 81.3219V81.6031C144.475 81.6031 144.944 81.8 145.375 82.1938C145.806 82.5875 146.2 83.0188 146.556 83.4875C146.58 83.5231 146.645 83.6188 146.751 83.7747L146.978 84.1063C147.222 84.4438 147.512 84.8563 147.85 85.3438C148.187 85.8313 148.525 86.3281 148.862 86.8344C149.219 87.3219 149.519 87.7438 149.762 88.1C150.025 88.4563 150.184 88.6719 150.24 88.7469C150.54 89.1031 150.906 89.4781 151.337 89.8719C151.769 90.2469 152.294 90.5656 152.912 90.8281C153.55 91.0906 154.3 91.2219 155.162 91.2219H156.709V90.9406C156.165 90.9406 155.669 90.8469 155.219 90.6594C154.787 90.4719 154.384 90.2188 154.009 89.9C153.634 89.5813 153.259 89.2156 152.884 88.8031C152.603 88.5031 152.265 88.1 151.872 87.5938C151.478 87.0875 151.084 86.5719 150.69 86.0469C150.315 85.5219 149.997 85.0813 149.734 84.725L149.369 84.1625C149.087 83.7875 148.759 83.4031 148.384 83.0094C148.009 82.5969 147.662 82.325 147.344 82.1938C148.244 82.1938 149.05 81.9406 149.762 81.4344C150.493 80.9094 151.065 80.2344 151.478 79.4094C151.909 78.5844 152.125 77.7219 152.125 76.8219C152.125 75.9969 151.994 75.2656 151.731 74.6281C151.487 73.9719 151.131 73.4188 150.662 72.9688C150.194 72.5 149.612 72.1438 148.919 71.9C148.244 71.6563 147.484 71.5344 146.64 71.5344Z" fill="white"/>
<path fill-rule="evenodd" clip-rule="evenodd" d="M127.433 71.1406L134.971 89.1688C135.252 89.8063 135.627 90.2656 136.096 90.5469C136.565 90.8094 137.015 90.9406 137.446 90.9406H137.671V91.2219H131.343V90.9406H131.596C131.952 90.9406 132.271 90.7906 132.552 90.4906C132.807 90.2021 132.862 89.8138 132.717 89.3256L130.856 84.3875H123.27L121.339 89.32C121.252 89.6302 121.249 89.8985 121.33 90.125C121.424 90.3875 121.574 90.5938 121.78 90.7438C122.005 90.875 122.23 90.9406 122.455 90.9406H122.708V91.2219H117.055V90.9406H117.308C117.74 90.9406 118.18 90.8094 118.63 90.5469C119.051 90.2946 119.403 89.8989 119.688 89.3598L126.14 74.0375L126.28 73.7C126.393 73.4563 126.515 73.1656 126.646 72.8281C126.796 72.4906 126.918 72.1625 127.012 71.8438C127.124 71.525 127.18 71.2906 127.18 71.1406H127.433ZM127.136 74.5156L130.538 83.5438H123.601L127.136 74.5156Z" fill="white"/>
<path fill-rule="evenodd" clip-rule="evenodd" d="M112.12 72.7719C110.62 71.9469 108.867 71.5344 106.86 71.5344H97.3261L97.3542 71.8156H97.6917C98.1792 71.8156 98.6011 71.9938 98.9573 72.35C99.3136 72.6875 99.4917 73.1 99.4917 73.5875V89.1688C99.4729 89.6563 99.2854 90.0781 98.9292 90.4344C98.5917 90.7719 98.1792 90.9406 97.6917 90.9406H97.3261V91.2219H106.86C108.867 91.2219 110.62 90.8094 112.12 89.9844C113.639 89.1594 114.82 88.0156 115.664 86.5531C116.526 85.0719 116.957 83.3469 116.957 81.3781C116.957 79.4094 116.526 77.6844 115.664 76.2031C114.82 74.7219 113.639 73.5781 112.12 72.7719ZM101.32 90.3781H106.86C108.473 90.3781 109.87 90.0031 111.051 89.2531C112.251 88.5031 113.179 87.4531 113.835 86.1031C114.51 84.7531 114.848 83.1781 114.848 81.3781C114.848 79.5781 114.51 78.0031 113.835 76.6531C113.179 75.3031 112.251 74.2531 111.051 73.5031C109.851 72.7531 108.454 72.3781 106.86 72.3781H101.32V90.3781Z" fill="white"/>
<path d="M85.3622 72.4063V81.0969H90.1153C90.4903 81.0781 90.809 80.9375 91.0715 80.675C91.334 80.3938 91.4653 80.0656 91.4653 79.6906V79.2969H91.7465V83.7406H91.4653V83.3188C91.4653 82.9438 91.334 82.625 91.0715 82.3625C90.809 82.0813 90.4903 81.9406 90.1153 81.9406H85.3622V90.35H89.384C90.3778 90.35 91.184 90.2 91.8028 89.9C92.4403 89.5813 92.9559 89.1406 93.3497 88.5781C93.7434 88.0156 94.0903 87.3781 94.3903 86.6656H94.6715L93.0403 91.2219H81.3684V90.9406H81.734C82.2215 90.9406 82.634 90.7719 82.9715 90.4344C83.3278 90.0781 83.5153 89.6563 83.534 89.1688V73.5875C83.534 73.1 83.3559 72.6875 82.9997 72.35C82.6434 71.9938 82.2215 71.8156 81.734 71.8156H81.3965L81.3684 71.5344H89.5247C89.9372 71.5344 90.3684 71.5063 90.8184 71.45C91.2872 71.3938 91.7184 71.3281 92.1122 71.2531C92.5059 71.1781 92.7872 71.1031 92.9559 71.0281V74.5719H92.6747V74.0656C92.6747 73.6156 92.5153 73.2313 92.1965 72.9125C91.9386 72.6394 91.6315 72.4706 91.2754 72.4063H85.3622Z" fill="white"/>
<path d="M77.9438 87.425L78.2813 83.0094H78.0563C77.85 84.9219 77.3625 86.45 76.5938 87.5938C75.825 88.7188 74.8688 89.5344 73.725 90.0406C72.6 90.5281 71.3719 90.7719 70.0406 90.7719C68.4656 90.7344 67.0781 90.3219 65.8781 89.5344C64.6969 88.7469 63.7688 87.65 63.0938 86.2438C62.4375 84.8375 62.1094 83.1969 62.1094 81.3219C62.1094 79.4469 62.4375 77.8156 63.0938 76.4281C63.7688 75.0219 64.7063 73.9344 65.9062 73.1656C67.125 72.3781 68.5594 71.9844 70.2094 71.9844C71.8969 71.9844 73.3781 72.4156 74.6531 73.2781C75.9281 74.1219 76.7719 75.3688 77.1844 77.0188H77.4375L76.875 73.0531C76.05 72.5094 75.075 72.0594 73.95 71.7031C72.8438 71.3281 71.5969 71.1406 70.2094 71.1406C68.1469 71.1406 66.3469 71.5719 64.8094 72.4344C63.2906 73.2781 62.1094 74.4688 61.2656 76.0063C60.4219 77.525 60 79.3063 60 81.35C60 83.4313 60.4219 85.2406 61.2656 86.7781C62.1281 88.2969 63.3188 89.4781 64.8375 90.3219C66.3563 91.1656 68.0906 91.5969 70.0406 91.6156C71.3344 91.6156 72.4781 91.4375 73.4719 91.0813C74.4844 90.7063 75.3563 90.2094 76.0875 89.5906C76.8375 88.9531 77.4563 88.2313 77.9438 87.425Z" fill="white"/>
<path d="M236.704 109.745V114.032H239.572C239.809 114.032 239.983 113.964 240.096 113.829C240.208 113.683 240.264 113.514 240.264 113.323V113.103H240.45V115.466H240.264V115.247C240.264 115.055 240.208 114.892 240.096 114.757C239.983 114.611 239.809 114.538 239.572 114.538H236.704V118.824H239.269C239.831 118.824 240.281 118.745 240.619 118.588C240.967 118.419 241.249 118.194 241.462 117.913C241.676 117.62 241.862 117.294 242.019 116.934H242.188L241.26 119.347H234.409V119.178H234.645C234.926 119.178 235.157 119.088 235.337 118.908C235.517 118.728 235.612 118.515 235.624 118.267V110.285C235.612 110.027 235.517 109.813 235.337 109.644C235.157 109.475 234.926 109.391 234.645 109.391H234.409V109.222H239.302C239.651 109.222 240.023 109.194 240.416 109.138C240.81 109.07 241.08 109.008 241.226 108.952V110.859H241.041V110.606C241.041 110.37 240.962 110.167 240.804 109.998C240.658 109.83 240.456 109.745 240.197 109.745H236.704Z" fill="white"/>
<path d="M229.033 109.104C228.583 109.025 228.1 108.986 227.582 108.986C226.48 108.986 225.512 109.2 224.68 109.627C223.847 110.055 223.2 110.662 222.739 111.45C222.278 112.237 222.047 113.182 222.047 114.285C222.047 115.376 222.278 116.315 222.739 117.103C223.2 117.89 223.842 118.498 224.663 118.925C225.495 119.353 226.468 119.572 227.582 119.583C228.381 119.583 229.09 119.471 229.708 119.246C230.338 119.021 230.878 118.74 231.328 118.402C231.778 118.065 232.133 117.733 232.392 117.407V115.382C232.392 114.932 232.645 114.707 233.151 114.707H233.387V114.538H230.299V114.707H230.535C230.783 114.707 230.974 114.763 231.109 114.875C231.255 114.988 231.323 115.151 231.312 115.365L231.295 117.609C230.946 117.947 230.569 118.228 230.164 118.453C229.77 118.667 229.36 118.824 228.932 118.925C228.505 119.027 228.055 119.077 227.582 119.077C226.727 119.077 225.973 118.886 225.321 118.503C224.668 118.11 224.162 117.553 223.802 116.833C223.442 116.113 223.262 115.263 223.262 114.285C223.262 113.295 223.442 112.445 223.802 111.737C224.162 111.017 224.663 110.465 225.304 110.083C225.957 109.689 226.71 109.492 227.565 109.492C228.353 109.492 229.028 109.599 229.59 109.813C230.153 110.015 230.608 110.33 230.957 110.758C231.317 111.185 231.576 111.731 231.733 112.395H231.885L231.514 110.015C231.143 109.779 230.749 109.588 230.333 109.442C229.928 109.284 229.495 109.172 229.033 109.104Z" fill="white"/>
<path fill-rule="evenodd" clip-rule="evenodd" d="M215.931 108.986L220.06 118.115H220.065C220.234 118.498 220.442 118.773 220.69 118.942C220.937 119.1 221.174 119.178 221.399 119.178H221.534V119.347H218.074V119.178H218.209C218.4 119.178 218.575 119.088 218.732 118.908C218.873 118.737 218.902 118.508 218.817 118.22L217.874 115.922H213.611L212.639 118.22C212.556 118.508 212.584 118.738 212.725 118.908C212.882 119.088 213.062 119.178 213.265 119.178H213.4V119.347H209.992C209.373 119.347 208.861 119.268 208.456 119.111C208.062 118.953 207.742 118.762 207.494 118.537C207.247 118.301 207.033 118.076 206.853 117.862C206.808 117.806 206.701 117.665 206.532 117.44C206.375 117.204 206.201 116.951 206.009 116.681C205.818 116.411 205.644 116.169 205.486 115.955C205.329 115.73 205.233 115.595 205.199 115.55C204.974 115.258 204.716 114.999 204.423 114.774C204.131 114.538 203.821 114.42 203.495 114.42V114.251L203.765 114.268C203.945 114.268 204.176 114.262 204.457 114.251C204.772 114.24 205.087 114.217 205.402 114.183C205.717 114.138 206.009 114.015 206.279 113.812C206.561 113.61 206.78 113.272 206.937 112.8C206.982 112.676 207.016 112.53 207.039 112.361C207.061 112.192 207.067 112.018 207.056 111.838C207.044 111.523 206.982 111.242 206.87 110.994C206.769 110.747 206.617 110.533 206.414 110.353C206.223 110.173 205.992 110.032 205.722 109.931C205.452 109.83 205.149 109.773 204.811 109.762C204.282 109.74 203.821 109.734 203.427 109.745C203.128 109.754 202.942 109.756 202.871 109.751V118.267C202.882 118.515 202.977 118.728 203.157 118.908C203.337 119.088 203.562 119.178 203.832 119.178H204.052L204.069 119.347H200.609V119.178H200.846C201.116 119.178 201.341 119.088 201.521 118.908C201.665 118.764 201.755 118.599 201.791 118.412V110.136C201.755 109.943 201.665 109.779 201.521 109.644C201.341 109.475 201.116 109.391 200.846 109.391H200.609V109.222H204.845C205.374 109.222 205.846 109.284 206.262 109.408C206.69 109.532 207.05 109.712 207.342 109.948C207.646 110.184 207.877 110.471 208.034 110.808C208.192 111.146 208.271 111.528 208.271 111.956C208.271 112.428 208.158 112.867 207.933 113.272C207.708 113.677 207.393 114.009 206.988 114.268C206.594 114.527 206.144 114.684 205.638 114.74C205.829 114.819 206.049 114.993 206.296 115.263C206.555 115.533 206.774 115.798 206.954 116.057L207.174 116.36L207.389 116.641L207.731 117.086C207.967 117.367 208.197 117.637 208.422 117.896C208.659 118.155 208.872 118.38 209.064 118.571C209.266 118.762 209.48 118.914 209.705 119.027C209.908 119.114 210.137 119.163 210.391 119.176C210.602 119.16 210.817 119.082 211.037 118.942C211.249 118.798 211.437 118.574 211.599 118.273L215.121 110.724L215.205 110.522C215.273 110.387 215.346 110.223 215.425 110.032C215.515 109.83 215.594 109.633 215.661 109.442C215.729 109.25 215.768 109.098 215.779 108.986H215.931ZM215.773 110.803L217.666 115.415H213.825L215.773 110.803Z" fill="white"/>
<path fill-rule="evenodd" clip-rule="evenodd" d="M193.391 108.986C194.178 108.986 194.915 109.115 195.601 109.374C196.299 109.622 196.906 109.982 197.424 110.454C197.953 110.927 198.363 111.489 198.656 112.142C198.948 112.783 199.094 113.497 199.094 114.285C199.094 115.072 198.948 115.792 198.656 116.445C198.363 117.086 197.953 117.643 197.424 118.115C196.906 118.588 196.299 118.953 195.601 119.212C194.915 119.46 194.178 119.583 193.391 119.583C192.603 119.583 191.866 119.46 191.18 119.212C190.494 118.953 189.886 118.588 189.358 118.115C188.84 117.643 188.435 117.086 188.143 116.445C187.85 115.792 187.704 115.072 187.704 114.285C187.704 113.497 187.85 112.783 188.143 112.142C188.435 111.489 188.84 110.927 189.358 110.454C189.886 109.982 190.494 109.622 191.18 109.374C191.866 109.115 192.603 108.986 193.391 108.986ZM193.391 119.077C194.223 119.077 194.977 118.875 195.652 118.47C196.327 118.065 196.861 117.502 197.255 116.782C197.649 116.062 197.846 115.23 197.846 114.285C197.846 113.328 197.649 112.496 197.255 111.787C196.861 111.067 196.327 110.505 195.652 110.1C194.977 109.695 194.223 109.492 193.391 109.492C192.57 109.492 191.821 109.695 191.146 110.1C190.471 110.505 189.937 111.067 189.543 111.787C189.15 112.496 188.953 113.328 188.953 114.285C188.953 115.23 189.15 116.062 189.543 116.782C189.937 117.502 190.471 118.065 191.146 118.47C191.821 118.875 192.57 119.077 193.391 119.077Z" fill="white"/>
<path d="M181.952 109.712V118.267C181.941 118.515 181.84 118.728 181.648 118.908C181.457 119.088 181.226 119.178 180.956 119.178H180.754V119.347H184.23V119.178H184.045C183.775 119.178 183.544 119.088 183.353 118.908C183.161 118.728 183.06 118.515 183.049 118.267V109.712H186.103C186.362 109.723 186.565 109.813 186.711 109.982C186.868 110.139 186.947 110.336 186.947 110.572V110.842H187.133V108.935C187.031 108.969 186.874 109.008 186.66 109.053C186.446 109.098 186.21 109.138 185.951 109.172C185.704 109.194 185.468 109.205 185.243 109.205H179.758C179.533 109.205 179.291 109.194 179.033 109.172C178.774 109.138 178.538 109.098 178.324 109.053C178.121 109.008 177.97 108.969 177.868 108.935V110.842H178.054V110.572C178.054 110.336 178.127 110.139 178.273 109.982C178.431 109.813 178.639 109.723 178.898 109.712H181.952Z" fill="white"/>
<path d="M173.842 107.298C174.022 107.298 174.213 107.31 174.415 107.332C174.629 107.355 174.832 107.388 175.023 107.433C175.061 107.44 175.099 107.446 175.135 107.453L175.209 107.467H175.951V109.543H175.799C175.799 109.003 175.614 108.581 175.242 108.277C174.871 107.962 174.421 107.805 173.892 107.805C173.274 107.805 172.773 108.002 172.39 108.395C172.008 108.778 171.817 109.228 171.817 109.745C171.817 109.959 171.862 110.212 171.952 110.505C172.053 110.786 172.233 111.05 172.492 111.298L175.816 114.369C176.154 114.684 176.379 115.022 176.491 115.382C176.604 115.742 176.66 116.09 176.66 116.428C176.66 117.362 176.373 118.121 175.799 118.706C175.237 119.291 174.472 119.583 173.504 119.583C173.234 119.583 172.914 119.555 172.542 119.499C172.182 119.443 171.828 119.347 171.479 119.212C171.142 119.066 170.86 118.88 170.635 118.655C170.602 118.475 170.585 118.25 170.585 117.98C170.585 117.71 170.607 117.429 170.652 117.137C170.697 116.833 170.759 116.557 170.838 116.31H170.99C170.934 116.883 171.007 117.384 171.209 117.812C171.412 118.239 171.704 118.565 172.087 118.79C172.48 119.004 172.925 119.1 173.42 119.077C174.039 119.043 174.567 118.83 175.006 118.436C175.456 118.031 175.681 117.491 175.681 116.816C175.681 116.49 175.625 116.197 175.512 115.938C175.4 115.668 175.237 115.438 175.023 115.247L171.783 112.243C171.445 111.928 171.209 111.585 171.074 111.213C170.939 110.831 170.872 110.477 170.872 110.15C170.872 109.678 170.984 109.222 171.209 108.783C171.434 108.345 171.766 107.99 172.205 107.72C172.655 107.439 173.2 107.298 173.842 107.298Z" fill="white"/>
<path fill-rule="evenodd" clip-rule="evenodd" d="M160.89 107.45C160.53 107.349 160.159 107.298 159.777 107.298C159.259 107.298 158.792 107.372 158.376 107.518C157.96 107.664 157.6 107.867 157.296 108.125C157.004 108.384 156.779 108.688 156.621 109.037C156.464 109.385 156.385 109.768 156.385 110.184C156.385 110.837 156.503 111.422 156.739 111.939C156.821 112.107 156.915 112.275 157.019 112.442C156.838 112.532 156.666 112.635 156.503 112.749C156.278 112.907 156.07 113.081 155.879 113.272C155.699 113.452 155.541 113.66 155.406 113.897C155.271 114.133 155.164 114.392 155.085 114.673C155.018 114.943 154.984 115.241 154.984 115.567C154.984 116.073 155.057 116.535 155.204 116.951C155.35 117.356 155.564 117.722 155.845 118.048C156.137 118.363 156.492 118.633 156.908 118.858C157.324 119.072 157.802 119.235 158.342 119.347C158.894 119.46 159.495 119.516 160.148 119.516C160.789 119.516 161.369 119.42 161.886 119.229C162.404 119.027 162.848 118.745 163.219 118.385L163.269 118.338C163.731 118.702 164.192 118.955 164.654 119.094C165.137 119.24 165.576 119.319 165.97 119.33C166.375 119.342 166.684 119.347 166.898 119.347V119.178C166.47 119.145 166.054 119.01 165.649 118.773C165.255 118.537 164.867 118.256 164.485 117.93C164.304 117.771 164.124 117.616 163.946 117.465C164.007 117.359 164.063 117.249 164.114 117.137C164.339 116.653 164.479 116.13 164.535 115.567C164.592 115.005 164.558 114.414 164.434 113.795C164.389 113.57 164.417 113.385 164.519 113.238C164.631 113.092 164.811 113.019 165.059 113.019H165.312V112.85H161.954V113.019H162.207C162.477 113.019 162.696 113.092 162.865 113.238C163.045 113.385 163.191 113.57 163.304 113.795C163.506 114.2 163.619 114.639 163.641 115.112C163.664 115.573 163.602 116.034 163.455 116.495C163.409 116.641 163.355 116.784 163.293 116.922C162.846 116.548 162.439 116.203 162.072 115.888C161.689 115.55 161.346 115.247 161.042 114.977C160.75 114.695 160.48 114.448 160.232 114.234C159.366 113.458 158.702 112.766 158.241 112.158C157.78 111.551 157.549 110.893 157.549 110.184C157.549 109.498 157.757 108.93 158.174 108.48C158.601 108.03 159.135 107.805 159.777 107.805C160.26 107.805 160.677 107.912 161.025 108.125C161.385 108.328 161.667 108.626 161.869 109.02C162.072 109.402 162.173 109.863 162.173 110.403H162.342L162.645 108.497C162.443 108.249 162.19 108.041 161.886 107.872C161.582 107.692 161.25 107.552 160.89 107.45ZM162.692 117.868L162.021 117.322C161.672 117.018 161.346 116.743 161.042 116.495C160.75 116.237 160.474 115.995 160.215 115.77C159.957 115.533 159.704 115.303 159.456 115.078C158.804 114.47 158.247 113.925 157.785 113.441C157.609 113.247 157.447 113.051 157.302 112.855C157.146 112.998 157.009 113.154 156.891 113.323C156.734 113.537 156.604 113.767 156.503 114.015C156.402 114.251 156.329 114.504 156.284 114.774C156.239 115.033 156.216 115.297 156.216 115.567C156.216 116.073 156.3 116.54 156.469 116.968C156.649 117.384 156.902 117.744 157.229 118.048C157.566 118.352 157.977 118.588 158.46 118.757C158.955 118.925 159.518 119.01 160.148 119.01C160.722 119.01 161.228 118.897 161.667 118.672C162.073 118.459 162.414 118.191 162.692 117.868Z" fill="white"/>
<path d="M144.27 109.745V114.032H147.139C147.375 114.032 147.55 113.964 147.662 113.829C147.775 113.683 147.831 113.514 147.831 113.323V113.103H148.017V115.466H147.831V115.247C147.831 115.055 147.775 114.892 147.662 114.757C147.55 114.611 147.375 114.538 147.139 114.538H144.27V118.824H146.835C147.398 118.824 147.848 118.745 148.185 118.588C148.534 118.419 148.815 118.194 149.029 117.913C149.243 117.62 149.428 117.294 149.586 116.934H149.755L148.827 119.347H141.975V119.178H142.212C142.493 119.178 142.723 119.088 142.903 118.908C143.083 118.728 143.179 118.515 143.19 118.267V110.285C143.179 110.027 143.083 109.813 142.903 109.644C142.723 109.475 142.493 109.391 142.212 109.391H141.975V109.222H146.869C147.218 109.222 147.589 109.194 147.983 109.138C148.377 109.07 148.647 109.008 148.793 108.952V110.859H148.607V110.606C148.607 110.37 148.528 110.167 148.371 109.998C148.225 109.83 148.022 109.745 147.763 109.745H144.27Z" fill="white"/>
<path d="M135.635 118.824V110.302C135.635 110.043 135.731 109.83 135.922 109.661C136.124 109.481 136.361 109.391 136.631 109.391H136.833V109.222H133.34V109.391H133.543C133.824 109.391 134.06 109.481 134.251 109.661C134.443 109.83 134.544 110.043 134.555 110.302V118.267C134.544 118.515 134.448 118.728 134.268 118.908C134.088 119.088 133.858 119.178 133.576 119.178H133.34V119.347H140.191L141.119 116.934H140.951C140.793 117.294 140.608 117.62 140.394 117.913C140.18 118.194 139.899 118.419 139.55 118.588C139.213 118.745 138.763 118.824 138.2 118.824H135.635Z" fill="white"/>
<path fill-rule="evenodd" clip-rule="evenodd" d="M126.892 108.986L131.022 118.115H131.027C131.195 118.498 131.404 118.773 131.651 118.942C131.899 119.1 132.135 119.178 132.36 119.178H132.495V119.347H129.035V119.178H129.17C129.362 119.178 129.536 119.088 129.694 118.908C129.834 118.737 129.863 118.508 129.779 118.22L128.835 115.922H124.572L123.601 118.22C123.517 118.508 123.545 118.738 123.686 118.908C123.844 119.088 124.024 119.178 124.226 119.178H124.361V119.347H121.138V119.178H121.273C121.509 119.178 121.751 119.1 121.999 118.942C122.211 118.798 122.398 118.574 122.561 118.273L126.082 110.724L126.167 110.522C126.234 110.387 126.307 110.223 126.386 110.032C126.476 109.83 126.555 109.633 126.622 109.442C126.69 109.25 126.729 109.098 126.74 108.986H126.892ZM126.735 110.803L128.628 115.415H124.786L126.735 110.803Z" fill="white"/>
<path d="M118.203 109.02C117.967 108.997 117.691 108.986 117.376 108.986C116.859 108.986 116.386 109.098 115.959 109.323C115.543 109.537 115.211 109.83 114.963 110.201C114.716 110.572 114.592 110.988 114.592 111.45C114.592 111.742 114.648 112.052 114.761 112.378C114.873 112.704 115.087 113.002 115.402 113.272L118.777 115.871C118.991 116.062 119.143 116.27 119.233 116.495C119.334 116.709 119.384 116.951 119.384 117.221C119.384 117.772 119.182 118.217 118.777 118.554C118.383 118.88 117.838 119.055 117.14 119.077C116.645 119.088 116.212 119.004 115.841 118.824C115.469 118.633 115.188 118.357 114.997 117.997C114.806 117.637 114.733 117.204 114.778 116.698H114.575C114.508 116.912 114.451 117.153 114.406 117.423C114.373 117.693 114.356 117.952 114.356 118.2C114.356 118.436 114.373 118.633 114.406 118.79C114.62 118.97 114.89 119.122 115.216 119.246C115.543 119.358 115.891 119.443 116.263 119.499C116.645 119.555 116.999 119.583 117.326 119.583C117.877 119.583 118.378 119.465 118.828 119.229C119.289 118.982 119.654 118.65 119.924 118.233C120.194 117.817 120.324 117.362 120.313 116.867C120.301 116.54 120.234 116.214 120.11 115.888C119.986 115.55 119.795 115.275 119.536 115.061L116.128 112.428C115.959 112.282 115.824 112.136 115.723 111.99C115.633 111.843 115.565 111.697 115.52 111.551C115.486 111.393 115.469 111.242 115.469 111.095C115.458 110.645 115.649 110.268 116.043 109.965C116.448 109.65 116.932 109.492 117.494 109.492C118.158 109.492 118.648 109.627 118.963 109.897C119.278 110.156 119.435 110.516 119.435 110.977H119.638L119.621 109.307L119.613 109.304L119.604 109.138H119.02C118.955 109.125 118.885 109.113 118.811 109.104C118.642 109.07 118.439 109.042 118.203 109.02Z" fill="white"/>
<path d="M107.439 109.745V114.032H110.307C110.544 114.032 110.718 113.964 110.83 113.829C110.943 113.683 110.999 113.514 110.999 113.323V113.103H111.185V115.466H110.999V115.247C110.999 115.055 110.943 114.892 110.83 114.757C110.718 114.611 110.544 114.538 110.307 114.538H107.439V118.824H110.004C110.566 118.824 111.016 118.745 111.354 118.588C111.702 118.419 111.984 118.194 112.197 117.913C112.411 117.62 112.597 117.294 112.754 116.934H112.923L111.995 119.347H105.144V119.178H105.38C105.661 119.178 105.892 119.088 106.072 118.908C106.252 118.728 106.347 118.515 106.359 118.267V110.285C106.347 110.027 106.252 109.813 106.072 109.644C105.892 109.475 105.661 109.391 105.38 109.391H105.144V109.222H110.037C110.386 109.222 110.757 109.194 111.151 109.138C111.545 109.07 111.815 109.008 111.961 108.952V110.859H111.775V110.606C111.775 110.37 111.697 110.167 111.539 109.998C111.393 109.83 111.19 109.745 110.932 109.745H107.439Z" fill="white"/>
<path d="M98.8748 107.535H94.3185V107.703H94.5379C94.8304 107.703 95.0779 107.81 95.2804 108.024C95.4942 108.227 95.6067 108.474 95.6179 108.767V118.115C95.6067 118.408 95.4942 118.661 95.2804 118.875C95.0779 119.077 94.8304 119.178 94.5379 119.178H94.3185V119.347H97.9973V119.178H97.7948C97.5023 119.178 97.2492 119.077 97.0354 118.875C96.8217 118.661 96.7148 118.408 96.7148 118.115V108.058H97.8285C98.166 108.047 98.4923 108.052 98.8073 108.075C99.4373 108.108 99.9379 108.356 100.309 108.817C100.692 109.267 100.889 109.875 100.9 110.64C100.911 110.82 100.905 111.005 100.883 111.197C100.86 111.377 100.832 111.528 100.799 111.652C100.641 112.158 100.41 112.535 100.107 112.783C99.8029 113.03 99.4767 113.193 99.1279 113.272C98.7792 113.351 98.4585 113.396 98.166 113.407C97.9185 113.418 97.7048 113.424 97.5248 113.424L97.2717 113.407V113.576C97.5754 113.576 97.8567 113.694 98.1154 113.93C98.3742 114.167 98.6104 114.425 98.8242 114.707C98.8363 114.725 98.8662 114.769 98.9139 114.839C98.9551 114.899 99.0096 114.979 99.0773 115.078C99.2235 115.28 99.3979 115.528 99.6004 115.82C99.8029 116.113 100.005 116.411 100.208 116.715C100.422 117.007 100.602 117.26 100.748 117.474C100.905 117.688 101.001 117.817 101.035 117.862C101.215 118.076 101.434 118.301 101.693 118.537C101.952 118.762 102.267 118.953 102.638 119.111C103.02 119.268 103.47 119.347 103.988 119.347H104.916V119.178C104.59 119.178 104.292 119.122 104.022 119.01C103.763 118.897 103.521 118.745 103.296 118.554C103.071 118.363 102.846 118.143 102.621 117.896C102.452 117.716 102.25 117.474 102.014 117.17C101.777 116.867 101.541 116.557 101.305 116.242C101.08 115.927 100.889 115.663 100.731 115.449L100.512 115.112C100.343 114.887 100.146 114.656 99.921 114.42C99.696 114.172 99.4879 114.009 99.2967 113.93C99.8367 113.93 100.32 113.778 100.748 113.475C101.187 113.16 101.53 112.755 101.777 112.26C102.036 111.765 102.165 111.247 102.165 110.707C102.165 110.212 102.087 109.773 101.929 109.391C101.783 108.997 101.569 108.665 101.288 108.395C101.007 108.114 100.658 107.9 100.242 107.754C99.8367 107.608 99.3811 107.535 98.8748 107.535Z" fill="white"/>
<path fill-rule="evenodd" clip-rule="evenodd" d="M227.212 186.168C269.216 186.568 297.96 187.379 297.96 188.315C297.96 189.647 239.766 190.727 167.98 190.727C96.1941 190.727 38 189.647 38 188.315C38 187.379 66.744 186.568 108.749 186.168C110.532 183.105 112.01 178.431 113.157 173.821C112.526 173.794 111.893 173.773 111.265 173.762C110.932 174.621 109.518 175.093 108.215 175.065C107.225 175.022 105.483 174.327 104.221 173.824C103.858 173.679 103.535 173.55 103.281 173.457C105.665 172.487 106.774 170.325 104.085 169.937C103.06 169.79 102.875 169.921 102.561 170.143C102.34 170.3 102.055 170.502 101.368 170.685C96.4065 172.016 90.2803 170.796 87.0648 167.83C90.8347 166.638 95.2423 164.836 95.1037 161.953C95.076 161.399 94.8542 160.817 94.2166 160.484C93.5236 160.124 92.6088 160.151 91.7495 160.179C89.1993 160.318 86.6767 160.429 84.1265 160.539C84.9581 159.431 86.8985 158.793 88.6726 159.043C90.6684 157.962 92.9138 156.132 91.5 154.635C89.7814 155.328 87.2311 154.413 87.0648 153.027C90.0586 152.944 93.0246 152.417 95.7135 151.503L93.9671 148.648L85.069 147.456C89.5596 146.707 93.7454 145.072 97.0441 142.826C98.0697 142.133 98.9014 140.803 97.5431 140.331C97.3213 140.248 97.0718 140.221 96.8223 140.221L92.5257 140.137C92.8029 138.807 94.8542 138.003 96.7669 137.753C97.2869 137.686 97.8172 137.636 98.3472 137.587C99.7657 137.455 101.184 137.323 102.394 136.839C104.057 136.173 105 134.372 103.531 133.485C102.865 133.069 101.951 132.986 101.091 132.93C98.4855 132.736 95.8521 132.597 93.2464 132.542C94.0832 131.759 95.2881 131.239 96.477 130.726L96.5728 130.685C99.7024 129.355 102.86 127.998 106.017 126.641L106.025 126.638C101.895 125.778 97.4599 125.723 93.2741 126.444L101.923 122.147C99.7607 122.701 97.0995 122.092 95.8798 120.733L102.533 119.652L100.703 118.46C102.089 118.682 103.614 118.432 104.695 117.795C102.81 117.24 100.953 116.714 99.0677 116.187C101.452 116.215 104.057 115.799 105.471 114.468C106.885 113.138 106.275 110.809 103.974 110.394C103.584 110.318 103.183 110.3 102.783 110.281C102.301 110.259 101.823 110.237 101.368 110.116C101.368 110.116 107.217 107.788 107.606 106.069C107.994 104.378 105.166 102.604 102.949 103.38C103.503 102.299 105.194 101.606 106.802 101.745C105.637 101.634 104.778 100.719 105.111 99.943C106.386 99.9985 107.689 99.749 108.77 99.25C109.269 98.8342 108.742 98.1967 108.104 97.9195C107.905 97.8326 107.688 97.7593 107.472 97.686C106.998 97.5254 106.524 97.3647 106.219 97.0602C105.305 96.1454 106.691 94.9257 108.132 94.4267C108.312 94.3631 108.499 94.2999 108.688 94.2358C109.983 93.7976 111.397 93.3186 111.736 92.3754L107.606 92.0982C106.608 91.0171 108.049 89.6588 109.546 88.9104L109.671 88.8483L109.923 88.7237C111.337 88.0261 112.905 87.2528 112.955 86.0829L108.742 85.6117C109.519 85.1263 110.288 84.6409 111.058 84.1555C111.827 83.6707 112.596 83.1859 113.371 82.7011C113.787 82.4517 114.203 82.202 114.508 81.8695C115.035 81.2873 115.201 80.5943 115.339 79.9291C116.115 76.3566 116.863 72.7841 117.61 69.2116L117.611 69.2076L117.612 69.2013C117.807 73.1653 118.943 78.3767 123.933 80.2894L121.382 81.0933C121.937 82.313 123.129 83.3941 124.709 84.0594C123.461 84.2257 122.353 84.9187 121.992 85.778C123.85 86.9423 126.039 87.8293 128.423 88.3283C126.954 88.7995 125.624 89.4371 124.515 90.241C124.664 90.3673 124.793 90.5078 124.931 90.6575C125.457 91.2305 126.105 91.9368 128.479 92.4863C127.793 92.7677 126.571 92.9933 125.345 93.2198C124.639 93.3503 123.931 93.481 123.323 93.6229L123.313 93.6132L123.305 93.6046L123.301 93.5998L123.299 93.595L123.297 93.5896L123.296 93.5835L123.295 93.5674C122.325 92.4863 120.107 92.0982 118.5 92.7081C118.472 93.4011 119.581 93.8446 120.579 93.9C120.945 93.9167 121.322 93.9033 121.697 93.89C121.945 93.8812 122.193 93.8723 122.436 93.8723L122.186 93.9555L122.263 93.9485C122.538 93.9233 122.792 93.9 123.046 93.9L123.545 93.9832H123.572C123.933 94.3158 124.543 94.5376 125.097 94.593C125.139 94.6069 125.187 94.6277 125.236 94.6485C125.284 94.6693 125.333 94.6901 125.374 94.7039C125.984 94.9534 126.732 95.1197 127.37 94.9257C126.896 94.6672 126.272 94.643 125.652 94.6191C125.545 94.615 125.434 94.6107 125.328 94.6053L125.221 94.5994L125.125 94.593H125.097C125.047 94.5706 124.996 94.5479 124.946 94.5251L124.78 94.4486C124.393 94.2699 124.008 94.0922 123.572 93.9832L123.489 93.9C126.519 93.9271 128.651 95.4063 131.02 97.0492L131.195 97.171L131.062 97.1654L130.915 97.1586L130.701 97.1481C129.254 97.0762 127.189 96.9738 127.065 97.864C126.994 98.3782 128.092 98.6789 129.326 99.0166C130.487 99.3342 131.767 99.6846 132.304 100.276C131.556 100.137 129.754 100.664 128.701 101.218C128.174 100.969 127.425 100.747 126.677 100.581C126.123 100.47 125.513 100.359 124.903 100.276C124.293 100.193 123.461 100.137 123.184 100.359C122.962 100.525 123.267 100.719 123.655 100.802C123.855 100.845 124.076 100.873 124.3 100.902C124.512 100.929 124.729 100.956 124.931 100.996C125.707 101.135 126.233 101.412 126.538 101.717C126.843 102.022 126.954 102.355 127.037 102.66C127.093 102.798 127.148 102.965 127.093 103.131C127.057 103.291 126.942 103.428 126.827 103.565C126.763 103.641 126.699 103.717 126.649 103.796C126.538 104.018 126.538 104.267 126.899 104.434C127.786 103.852 128.479 103.242 129.061 102.604L129.351 102.72C131.202 103.457 133.778 104.484 135.127 106.029C137.977 103.797 142.021 102.601 145.998 102.826C146.719 101.856 145.222 100.802 143.891 100.47C143.639 100.413 143.394 100.364 143.149 100.315C142.081 100.101 141.03 99.8909 139.428 99.056C139.428 99.056 144.446 96.6444 145.721 94.9534C145.773 94.883 145.826 94.8135 145.879 94.7448L145.954 94.6478L146.05 94.5244L146.054 94.5189L146.058 94.5142C146.827 93.528 147.445 92.735 146.137 92.1537C145.155 91.7176 143.245 92.0676 141.561 92.3761C140.676 92.5383 139.854 92.689 139.262 92.7081C140.34 91.0475 142.912 89.7896 145.541 88.5036L145.545 88.5015L145.549 88.4994C146.296 88.1342 147.05 87.7655 147.772 87.3858C151.154 88.1342 152.346 87.7739 154.979 85.9166C153.51 83.8653 150.239 83.7267 147.384 84.198C144.501 84.6692 141.895 85.5285 139.511 86.8868C139.967 86.4852 140.379 86.1157 140.762 85.7732C143.519 83.3024 144.706 82.239 149.186 80.7052C147.168 80.3152 146.509 79.8941 145.622 79.3276C145.06 78.9681 144.405 78.55 143.254 78.0441C144.428 77.3626 145.428 76.5542 146.405 75.7643C148.01 74.466 149.554 73.2179 151.708 72.6663C152.041 67.0669 146.58 71.5575 146.58 71.5575C148.171 69.2367 151.454 67.7008 153.8 66.6038L154.09 66.468L154.231 66.4016C154.952 67.3163 155.783 68.2034 156.892 69.035C157.363 68.7855 157.363 68.4251 157.197 68.1202C157.138 67.9896 157.048 67.8589 156.958 67.7282C156.838 67.5539 156.718 67.3797 156.67 67.2055C156.615 66.9837 156.67 66.7342 156.726 66.5125C156.837 66.0689 156.975 65.5977 157.336 65.1819C157.724 64.7384 158.361 64.3503 159.304 64.1563C159.442 64.1344 159.585 64.1144 159.728 64.0943C160.128 64.0383 160.537 63.981 160.884 63.879C161.355 63.7405 161.715 63.4632 161.466 63.2415C161.106 62.9366 160.08 63.0197 159.359 63.1306C158.638 63.2415 157.89 63.4078 157.197 63.5741C156.254 63.7959 155.367 64.1008 154.73 64.4889C153.455 63.7127 151.265 62.9643 150.322 63.1306C150.979 62.2998 152.549 61.8058 153.974 61.3575C155.497 60.8784 156.854 60.4513 156.753 59.721C156.584 58.4867 154.175 58.6047 152.404 58.6915C152.256 58.6987 152.108 58.706 151.971 58.7119C151.871 58.7163 151.774 58.7201 151.681 58.7231L152.016 58.4559C154.873 56.176 157.451 54.1194 161.133 54.0661C161.125 54.0825 161.114 54.0965 161.103 54.1095L161.089 54.1236L161.078 54.1354C161.068 54.1454 161.058 54.1553 161.049 54.1661L161.042 54.1745L161.035 54.1833L161.031 54.1888L161.027 54.1963L161.022 54.2047C160.523 54.3502 160.071 54.5893 159.619 54.8284C159.469 54.908 159.317 54.9879 159.165 55.064H159.137C158.968 55.0737 158.796 55.08 158.623 55.0863C157.808 55.1161 156.983 55.1464 156.365 55.5352C157.169 55.8402 158.084 55.5907 158.832 55.2303L159.165 55.064C159.83 55.0086 160.607 54.6759 161.022 54.2047H161.05C161.223 54.1553 161.417 54.128 161.595 54.103L161.66 54.0938C161.993 54.0938 162.325 54.1215 162.686 54.177C162.631 54.1497 162.583 54.1291 162.535 54.1086L162.497 54.0922L162.464 54.0778L162.421 54.058L162.381 54.0384C162.679 54.0384 162.982 54.0472 163.286 54.056C163.744 54.0694 164.204 54.0827 164.654 54.0661C165.873 53.9829 167.259 53.3454 167.204 52.3752C165.264 51.5158 162.519 52.0702 161.327 53.5948L161.326 53.6042L161.325 53.6101L161.323 53.6142L161.32 53.6229L161.317 53.6288L161.313 53.6364L161.306 53.6525L161.301 53.6673L161.3 53.6721L161.3 53.678C160.545 53.4712 159.659 53.2836 158.775 53.0967C157.291 52.7826 155.813 52.4699 154.979 52.0702C157.872 51.2812 158.669 50.2843 159.314 49.4767C159.484 49.2629 159.645 49.0623 159.83 48.8824C158.444 47.7459 156.809 46.8311 155.035 46.1658C157.945 45.4451 160.662 44.1977 162.907 42.5345C162.464 41.3148 161.106 40.3168 159.553 40.0951C161.494 39.1526 162.963 37.628 163.628 35.8816L160.496 34.7451C166.622 32.0562 168.036 24.6272 168.257 19C168.753 21.7642 169.257 24.5203 169.76 27.2727L169.767 27.3101C170.19 29.6239 170.613 31.935 171.029 34.2461C171.196 35.1886 171.39 36.1865 172.055 36.9904C172.443 37.4339 172.942 37.822 173.441 38.1824C175.326 39.5407 177.239 40.9267 179.124 42.3127L173.968 42.978C174.019 44.6619 175.948 45.7587 177.682 46.744L177.696 46.7518L177.913 46.8753L178.126 46.9974C179.955 48.0508 181.729 49.9912 180.51 51.5158L175.437 51.9039C175.846 53.2501 177.568 53.9292 179.157 54.5559L179.167 54.5601C179.407 54.6546 179.644 54.7479 179.872 54.8422C181.619 55.5907 183.337 57.3094 182.201 58.6122C181.847 59.0214 181.282 59.2559 180.713 59.4915C180.435 59.607 180.155 59.7229 179.9 59.8596C179.124 60.2754 178.486 61.1625 179.068 61.7446C180.371 62.4653 181.979 62.7979 183.559 62.7425C183.974 63.8492 182.925 65.1492 181.488 65.292C183.454 65.1015 185.528 66.0988 186.192 67.6213C183.448 66.5125 180.011 69.0073 180.482 71.4467C180.981 73.886 188.133 77.2125 188.133 77.2125C187.571 77.3998 186.956 77.4289 186.338 77.4581C185.859 77.4809 185.377 77.5037 184.917 77.6006C182.117 78.1827 181.341 81.5091 183.088 83.3941C184.834 85.2791 188.022 85.9166 190.932 85.8334C189.785 86.2068 188.637 86.5871 187.489 86.9673L187.481 86.97C186.331 87.3511 185.181 87.7323 184.03 88.1065C185.361 89.0213 187.246 89.3817 188.937 89.049L186.691 90.7677L194.841 92.2923C193.344 94.205 190.073 95.092 187.44 94.3159L198.057 100.414C192.928 99.3887 187.467 99.4718 182.422 100.719C184.349 101.676 186.282 102.639 188.216 103.602C190.149 104.565 192.083 105.529 194.009 106.485C195.506 107.206 197.031 107.982 198.084 109.118C194.869 109.229 191.653 109.396 188.465 109.673C187.412 109.756 186.275 109.895 185.472 110.449C183.67 111.724 184.834 114.274 186.885 115.245C188.361 115.943 190.081 116.124 191.797 116.305C192.466 116.376 193.134 116.446 193.788 116.547C194.266 116.622 194.753 116.727 195.227 116.865C195.513 116.647 195.778 116.443 196.027 116.251C198.256 114.533 199.226 113.786 202.852 112.722C201.245 112.438 200.71 112.143 200.001 111.753C199.535 111.497 198.995 111.2 198.029 110.837C198.987 110.363 199.805 109.794 200.605 109.236C201.914 108.325 203.177 107.445 204.931 107.067C205.208 103.131 200.745 106.291 200.745 106.291C202.038 104.63 204.76 103.545 206.692 102.775L206.982 102.66C207.565 103.297 208.258 103.907 209.145 104.489C209.533 104.323 209.533 104.073 209.394 103.852C209.344 103.771 209.279 103.69 209.214 103.61C209.1 103.469 208.986 103.327 208.951 103.186C208.923 103.048 208.951 102.881 209.006 102.715L209.031 102.638C209.131 102.335 209.224 102.054 209.505 101.773C209.81 101.468 210.337 101.19 211.113 101.052L211.313 101.026C211.675 100.978 212.061 100.928 212.388 100.858C212.776 100.775 213.053 100.581 212.859 100.414C212.582 100.193 211.723 100.248 211.141 100.331C210.531 100.414 209.921 100.525 209.366 100.636C208.59 100.775 207.87 100.996 207.343 101.274C206.289 100.747 204.488 100.22 203.739 100.331C204.277 99.74 205.556 99.3898 206.717 99.0722C207.951 98.7345 209.05 98.4337 208.978 97.9195C208.855 97.0313 206.822 97.1312 205.359 97.203C205.179 97.2119 205.007 97.2204 204.848 97.2265L205.024 97.1047C207.392 95.4617 209.524 93.9825 212.554 93.9555L212.471 94.0387C212.035 94.1477 211.65 94.3253 211.263 94.504L211.117 94.5712C211.061 94.5972 211.004 94.623 210.946 94.6485H210.919C210.746 94.6608 210.569 94.6677 210.391 94.6746C209.772 94.6985 209.147 94.7226 208.673 94.9811C209.311 95.1752 210.059 95.0088 210.669 94.7594C210.69 94.7524 210.712 94.7438 210.736 94.7343C210.759 94.7248 210.784 94.7144 210.808 94.7039C210.856 94.6831 210.905 94.6624 210.946 94.6485C211.501 94.593 212.138 94.3713 212.471 94.0387H212.499L212.521 94.0317L212.542 94.0254C212.555 94.0217 212.568 94.0184 212.581 94.0153C212.599 94.0111 212.617 94.0074 212.634 94.0041L212.665 93.9986L212.691 93.9945L212.739 93.9879C212.77 93.9839 212.801 93.9805 212.832 93.977L212.882 93.9714L212.909 93.9681L212.954 93.9623C212.968 93.9602 212.983 93.9579 212.998 93.9555C213.275 93.9555 213.58 93.9832 213.857 94.0109L213.608 93.9278C213.85 93.9278 214.096 93.9366 214.344 93.9454C214.719 93.9587 215.098 93.9722 215.465 93.9555C216.463 93.9 217.599 93.4565 217.544 92.7635C215.964 92.1537 213.718 92.5418 212.748 93.6229L212.744 93.6271L212.733 93.6389L212.729 93.6428L212.726 93.6465L212.723 93.6518L212.722 93.6561L212.721 93.6691L212.721 93.6783C212.111 93.5337 211.391 93.4007 210.67 93.2677C209.457 93.0439 208.242 92.8198 207.565 92.5418C209.938 91.9923 210.587 91.2859 211.113 90.713C211.25 90.5637 211.38 90.4224 211.529 90.2964C210.42 89.4925 209.089 88.855 207.62 88.3837C210.004 87.8848 212.222 86.9977 214.051 85.8334C213.718 84.9741 212.61 84.2811 211.335 84.1148C212.915 83.4495 214.134 82.3684 214.661 81.1488L212.111 80.3449C217.1 78.4322 218.237 73.2207 218.431 69.2568C219.204 72.8175 219.949 76.3783 220.694 79.9391L220.696 79.9484L220.699 79.9584L220.704 79.9845C220.843 80.6775 221.009 81.3705 221.536 81.9249C221.841 82.2298 222.256 82.507 222.672 82.7565C223.441 83.2369 224.203 83.7173 224.964 84.1977L225.009 84.2259C225.771 84.7063 226.533 85.1867 227.301 85.6671L223.088 86.1384C223.139 87.3083 224.706 88.0815 226.121 88.7792L226.125 88.781L226.135 88.7863L226.295 88.8651L226.395 88.915L226.498 88.9658C227.994 89.7143 229.436 91.0726 228.438 92.1537L224.308 92.4309C224.625 93.3828 226.06 93.8619 227.382 94.3034L227.386 94.3047L227.418 94.3153L227.542 94.3567L227.73 94.4201L227.805 94.4457L227.911 94.4822C229.353 94.9811 230.766 96.2008 229.824 97.1156C229.518 97.4023 229.041 97.5704 228.565 97.738C228.351 97.8134 228.137 97.889 227.939 97.9749C227.301 98.2798 226.802 98.8897 227.274 99.3055C228.327 99.8044 229.658 100.054 230.933 99.9985C231.261 100.765 230.428 101.693 229.287 101.797C230.881 101.675 232.546 102.392 233.095 103.436C230.85 102.66 228.05 104.406 228.438 106.125C228.826 107.816 234.675 110.172 234.675 110.172C234.224 110.312 233.73 110.33 233.231 110.348C232.84 110.362 232.447 110.376 232.069 110.449C229.769 110.865 229.159 113.193 230.572 114.524C232.014 115.854 234.592 116.298 236.976 116.243C235.091 116.797 233.234 117.324 231.349 117.85C232.43 118.488 233.954 118.737 235.34 118.516L233.511 119.708L240.164 120.789C238.916 122.119 236.283 122.757 234.121 122.202L242.769 126.499C238.611 125.751 234.148 125.834 230.018 126.693C233.15 128.024 236.311 129.382 239.471 130.74L239.567 130.782C240.756 131.295 241.96 131.815 242.797 132.597C240.164 132.681 237.558 132.792 234.952 132.986L234.911 132.99C234.064 133.071 233.168 133.158 232.513 133.54C231.044 134.399 231.986 136.229 233.649 136.894C234.881 137.379 236.289 137.51 237.702 137.642C238.229 137.692 238.757 137.741 239.277 137.809C241.189 138.086 243.24 138.862 243.518 140.193L239.221 140.276C238.972 140.276 238.722 140.304 238.5 140.387C237.142 140.83 237.974 142.189 238.999 142.882C242.298 145.155 246.484 146.762 250.975 147.511L241.993 148.648L240.247 151.503C242.936 152.417 245.902 152.944 248.895 153.027C248.729 154.413 246.179 155.328 244.46 154.635C243.047 156.104 245.264 157.934 247.288 159.043C249.062 158.765 251.002 159.431 251.834 160.539C249.284 160.401 246.761 160.29 244.211 160.179C243.351 160.151 242.409 160.124 241.744 160.484C241.134 160.817 240.884 161.399 240.857 161.953C240.718 164.836 245.126 166.638 248.979 167.885C245.763 170.851 239.637 172.071 234.675 170.741C233.988 170.557 233.703 170.355 233.483 170.199C233.168 169.976 232.984 169.846 231.958 169.992C229.27 170.38 230.378 172.57 232.762 173.513C232.715 173.53 232.666 173.548 232.614 173.568L232.498 173.613L232.379 173.66L232.273 173.702L232.181 173.739L232.062 173.787L231.793 173.895L231.784 173.899C230.533 174.407 228.829 175.099 227.828 175.12C226.553 175.176 225.139 174.677 224.779 173.817C224.127 173.829 223.472 173.851 222.818 173.88C223.963 178.471 225.436 183.118 227.212 186.168ZM205.575 146.708C206.149 146.609 206.616 146.267 206.955 145.903L206.97 145.887L206.99 145.865C206.999 145.854 207.008 145.843 207.018 145.831L207.037 145.807L207.068 145.769L207.092 145.741L207.099 145.733L207.11 145.721L207.121 145.709C207.592 145.487 208.008 145.072 208.091 144.683C207.762 144.925 207.537 145.201 207.306 145.485L207.211 145.601L207.18 145.638L207.121 145.709H207.093C206.938 145.783 206.773 145.853 206.607 145.922C206.119 146.127 205.625 146.335 205.361 146.677L205.421 146.685L205.48 146.693L205.516 146.699L205.575 146.708ZM196.05 149.59C195.917 149.835 195.83 150.1 195.78 150.368C196.213 150.123 196.639 149.873 197.059 149.618C196.722 149.615 196.386 149.605 196.05 149.59ZM204.159 160.493C204.417 160.296 204.665 160.091 204.904 159.879C204.919 159.899 204.934 159.92 204.947 159.942C204.953 159.951 204.958 159.961 204.964 159.97C204.972 159.984 204.979 159.998 204.987 160.013C205.067 160.174 205.12 160.354 205.171 160.53C205.208 160.657 205.245 160.784 205.292 160.9C205.486 161.427 205.901 161.815 206.317 162.009C206.725 162.226 207.186 162.284 207.621 162.338L207.648 162.341C207.87 162.369 208.119 162.397 208.341 162.369C208.527 162.338 208.695 162.273 208.865 162.206L208.871 162.204C208.94 162.177 209.009 162.151 209.079 162.126L209.107 162.116L209.138 162.106L209.168 162.097L209.197 162.088L209.238 162.076L209.283 162.064C209.616 161.981 209.949 161.981 210.198 162.23C209.145 163.062 208.008 163.616 206.844 164.088C205.929 164.088 205.125 163.145 204.682 162.12C204.515 161.731 204.349 161.316 204.238 160.872C204.207 160.755 204.178 160.624 204.159 160.493ZM187.938 163.109C187.226 162.862 186.91 162.597 186.661 162.388C186.279 162.069 186.055 161.881 184.806 162.092C181.508 162.646 182.866 165.723 185.777 167.081C185.455 167.217 185.042 167.408 184.578 167.624C183.043 168.338 180.947 169.312 179.734 169.355C178.153 169.41 176.407 168.717 175.991 167.497C175.19 167.514 174.385 167.547 173.581 167.589C175.068 174.516 177.016 181.562 179.391 185.913C190.826 185.931 201.836 185.977 212.23 186.047C213.947 183.07 215.377 178.634 216.501 174.213C213.154 174.329 210.328 174.16 208.84 172.875C208.424 172.515 203.046 174.039 202.547 174.316C202.341 174.435 202.452 174.241 202.65 173.896C203.145 173.036 204.178 171.235 202.159 171.018C201.952 170.993 200.641 171.385 199.206 171.814C197.371 172.363 195.333 172.972 195.146 172.847C194.675 172.542 194.342 172.043 194.508 171.6C195.894 168.246 190.406 167.996 187.44 168.634L192.069 165.113C190.129 164.032 187.717 163.367 185.25 163.228C186.137 163.228 187.059 163.22 187.938 163.109ZM123.73 186.047C135.228 185.97 147.481 185.922 160.228 185.908C162.542 181.659 164.453 174.833 165.928 168.059C161.806 168.228 158.318 167.993 156.476 166.167C155.977 165.695 149.38 167.858 148.77 168.246C148.513 168.406 148.656 168.115 148.905 167.61C149.516 166.372 150.759 163.848 148.299 163.533C148.056 163.499 146.598 163.998 144.948 164.57C144.612 164.721 144.287 164.884 143.974 165.058L148.604 168.578C145.638 167.913 140.177 168.19 141.535 171.544C141.701 171.96 141.369 172.487 140.897 172.792C140.694 172.917 138.638 172.301 136.799 171.75C135.38 171.325 134.09 170.938 133.884 170.962C131.875 171.179 132.889 172.949 133.386 173.816C133.588 174.17 133.705 174.373 133.496 174.261C132.997 173.984 127.619 172.459 127.204 172.82C125.688 174.099 122.822 174.262 119.442 174.146C120.568 178.589 122.005 183.055 123.73 186.047ZM135.064 106.079C134.151 105.492 130.898 103.625 131.112 107.012C132.886 107.394 134.158 108.279 135.482 109.199C136.091 109.623 136.71 110.053 137.395 110.447C138.059 110.31 138.742 110.234 139.428 110.227C140.454 110.2 141.84 110.144 142.006 109.285C142.089 108.897 141.868 108.509 141.48 108.259C139.456 106.956 136.767 106.43 134.245 106.79C134.505 106.543 134.778 106.305 135.064 106.079ZM133.361 112.717C136.892 113.767 137.867 114.523 140.105 116.258L140.119 116.269C140.417 116.5 140.739 116.749 141.092 117.019C139.151 116.049 137.017 115.439 134.688 115.106C132.332 114.773 129.671 114.884 128.479 116.326C130.613 117.629 131.611 117.878 134.356 117.351C134.967 117.632 135.604 117.902 136.235 118.17C137.55 118.728 138.845 119.277 139.846 119.889C140.962 118.735 142.092 117.59 143.309 116.547C141.919 113.433 137.182 111.704 133.361 112.717ZM138.978 120.787C137.713 120.593 136.377 120.428 135.658 120.706C134.574 121.115 135.082 121.671 135.706 122.356C135.8 122.458 135.897 122.565 135.991 122.674C136.133 122.835 136.331 123.005 136.566 123.179C137.392 122.413 138.187 121.604 138.978 120.787ZM135.929 127.287C135.617 127.577 135.499 127.909 135.769 128.218C136.035 128.203 136.301 128.196 136.567 128.195C136.733 128.051 136.892 127.901 137.044 127.746C136.645 127.547 136.276 127.397 135.929 127.287ZM139.128 132.993C139.463 133.388 140.383 133.429 141.119 133.429C141.292 133.431 141.464 133.438 141.636 133.449C141.779 133.35 141.921 133.251 142.062 133.152C141.08 133.152 140.099 133.098 139.128 132.993ZM131.042 159.954C131.263 159.914 131.492 159.879 131.726 159.848C131.898 160.102 131.84 160.575 131.722 160.928C131.584 161.343 131.445 161.759 131.279 162.175C130.807 163.228 130.031 164.171 129.116 164.143C127.952 163.616 126.816 163.062 125.762 162.286C126.012 162.036 126.372 162.036 126.677 162.12C126.801 162.153 126.924 162.201 127.05 162.249C127.233 162.319 127.422 162.392 127.619 162.424C127.841 162.452 128.091 162.424 128.312 162.397C128.756 162.341 129.227 162.258 129.643 162.064C130.059 161.842 130.475 161.482 130.669 160.955C130.71 160.84 130.744 160.726 130.778 160.612C130.833 160.425 130.887 160.241 130.974 160.068C130.994 160.028 131.017 159.99 131.042 159.954ZM195.324 116.894C196.619 117.283 197.809 117.914 198.469 118.796C198.923 118.595 199.392 118.397 199.864 118.197L199.87 118.194C200.479 117.936 201.094 117.676 201.688 117.407C204.432 117.933 205.402 117.684 207.565 116.381C206.345 114.94 203.684 114.829 201.355 115.161C199.175 115.499 197.165 116.031 195.324 116.894ZM196.121 119.989L193.705 120.04C193.427 120.04 193.122 120.096 192.845 120.207C191.154 120.844 192.208 122.757 193.455 123.755C194.147 124.299 194.87 124.818 195.621 125.31C196.833 124.769 199.272 123.612 200.052 122.729L200.11 122.663L200.145 122.624L200.187 122.576L200.253 122.504L200.318 122.431C200.946 121.738 201.456 121.175 200.385 120.761C199.551 120.446 197.934 120.701 196.541 120.921C195.852 121.03 195.216 121.131 194.758 121.149C195.076 120.73 195.547 120.349 196.121 119.989ZM197.409 126.397C198.379 126.945 199.386 127.449 200.425 127.907C200.434 127.334 199.447 126.793 198.556 126.61C198.335 126.565 198.12 126.526 197.904 126.488L197.899 126.487L197.666 126.445C197.581 126.43 197.496 126.414 197.409 126.397ZM206.269 130.599L208.147 130.324C207.945 130.285 207.745 130.244 207.544 130.201C207.383 130.167 207.222 130.131 207.061 130.095L207.092 130.08L207.137 130.059L207.193 130.033L207.24 130.012L207.287 129.992C207.592 129.881 207.925 129.77 208.23 129.687C208.535 129.604 209.006 129.548 209.145 129.77C209.256 129.936 209.089 130.13 208.895 130.214C208.71 130.283 208.505 130.333 208.313 130.38L208.307 130.382L208.269 130.391L208.202 130.408C207.786 130.546 207.509 130.823 207.343 131.128C207.177 131.433 207.121 131.738 207.066 132.071C207.038 132.237 207.01 132.403 207.038 132.542C207.056 132.69 207.124 132.838 207.192 132.985L207.216 133.037C207.22 133.047 207.225 133.057 207.229 133.067C207.234 133.078 207.239 133.089 207.244 133.101L207.259 133.136L207.271 133.165L207.275 133.176L207.287 133.207C207.371 133.429 207.371 133.679 207.149 133.845C206.539 133.096 206.123 132.32 205.763 131.516C205.763 131.17 205.965 130.862 206.269 130.599ZM196.909 132.367L196.394 133.332C196.723 133.239 196.971 133.084 197.031 132.819C197.062 132.662 197.013 132.504 196.909 132.367ZM195.171 135.621L194.98 135.979C195.672 136.253 196.38 136.502 197.101 136.726C196.57 136.277 195.908 135.903 195.171 135.621ZM208.093 144.672L208.096 144.667L208.103 144.661L208.112 144.657L208.116 144.656C208.549 144.362 209.114 144.186 209.685 144.008C210.028 143.901 210.374 143.793 210.697 143.658C211.529 143.297 212.249 142.549 211.75 141.967C209.949 141.911 208.202 142.965 208.036 144.24C208.117 144.375 208.119 144.511 208.093 144.672ZM167.453 78.3213C168.008 77.9609 168.673 77.5451 169.366 77.656C169.505 77.6837 169.643 77.7115 169.726 77.7946C169.81 77.8777 169.837 78.0164 169.726 78.0995C169.699 78.1272 169.643 78.155 169.588 78.1827C169.408 78.252 169.22 78.3213 169.033 78.3907L168.793 78.4798L168.744 78.4982C168.654 78.5317 168.566 78.5651 168.479 78.5985C168.313 78.6539 168.146 78.7371 168.063 78.8757L168.056 78.8995L168.05 78.9227C168.045 78.9448 168.041 78.9665 168.037 78.9874L168.036 78.9972C168.029 79.0352 168.022 79.0698 168.008 79.0974C167.925 79.3192 167.62 79.4301 167.343 79.5132C166.372 79.7904 165.402 80.0399 164.404 80.234C164.737 79.9291 165.18 79.7073 165.652 79.6241C165.887 79.4717 166.22 79.2224 166.552 78.9731C166.884 78.7238 167.218 78.4736 167.453 78.3213ZM165.929 61.1625C165.94 61.1516 165.955 61.145 165.971 61.141L165.981 61.1387L165.99 61.1373L166.005 61.1358L166.016 61.1351L166.028 61.1348L166.04 61.1348C166.095 61.1348 166.151 61.1902 166.178 61.2179C166.594 61.7723 166.899 62.3821 167.121 63.0197C166.29 62.6447 165.279 62.3473 164.361 62.0776L164.266 62.0495C164.82 61.7448 165.375 61.4395 165.929 61.1625ZM160.496 78.1272C160.523 78.0995 160.551 78.0995 160.607 78.0995C160.649 78.0995 160.675 78.1319 160.697 78.1595L160.705 78.1693L160.713 78.1775L160.717 78.1827C161.078 78.6816 161.355 79.236 161.549 79.7904C160.801 79.4578 159.83 79.1529 158.999 78.9311C159.247 78.7935 159.494 78.6627 159.742 78.532L159.747 78.5292L159.896 78.4508L159.994 78.3989L160.138 78.3217L160.309 78.2299C160.371 78.1961 160.433 78.1619 160.496 78.1272ZM154.591 105.404C154.952 105.238 155.367 105.071 155.756 104.96C156.144 104.85 156.698 104.766 156.892 105.071C157.031 105.293 156.837 105.57 156.587 105.709C156.409 105.808 156.189 105.864 155.976 105.919L155.876 105.945L155.837 105.955L155.781 105.971L155.728 105.986C155.229 106.18 154.868 106.568 154.674 107.012C154.515 107.353 154.449 107.731 154.385 108.101L154.363 108.226L154.356 108.265L154.342 108.342C154.314 108.564 154.286 108.814 154.314 109.035C154.347 109.218 154.411 109.401 154.474 109.584C154.516 109.706 154.558 109.828 154.591 109.95C154.674 110.255 154.674 110.615 154.425 110.865C153.677 109.811 153.15 108.703 152.706 107.538C152.734 106.624 153.621 105.847 154.591 105.404ZM149.214 134.954C148.936 134.926 148.659 134.732 148.687 134.482C148.712 134.306 148.897 134.176 149.076 134.05L149.13 134.011L149.15 133.998L149.16 133.992C149.172 133.983 149.186 133.975 149.202 133.966C149.227 133.951 149.256 133.934 149.288 133.916L149.393 133.858L149.399 133.855L149.407 133.85C149.726 133.675 150.169 133.431 150.128 133.29C150.406 133.152 150.71 133.013 151.043 132.93C151.403 132.847 151.792 132.791 152.124 132.875C152.485 132.958 152.762 133.235 152.734 133.54C152.679 133.928 152.152 134.15 151.708 134.288L150.045 134.787C149.768 134.898 149.491 134.981 149.214 134.954ZM154.037 153.859C152.9 153.887 151.958 152.528 151.376 151.059C151.176 150.56 151.021 150.016 150.871 149.488L150.821 149.313C150.655 148.731 150.6 147.899 150.96 147.622C151.237 147.428 151.57 147.705 151.736 148.093C151.832 148.316 151.891 148.567 151.95 148.819C151.994 149.005 152.038 149.192 152.096 149.368C152.346 150.117 152.817 150.643 153.344 150.948C153.813 151.22 154.305 151.316 154.798 151.412L154.809 151.414L154.979 151.447C155.257 151.503 155.562 151.53 155.839 151.503C156.081 151.468 156.313 151.358 156.548 151.246L156.651 151.197L156.68 151.183L156.703 151.172L156.744 151.154L156.773 151.141C156.789 151.134 156.805 151.127 156.821 151.12C156.833 151.115 156.845 151.11 156.857 151.105L156.898 151.088L156.919 151.08L156.949 151.069L156.975 151.059C157.363 150.921 157.807 150.921 158.112 151.309C156.837 152.417 155.478 153.194 154.037 153.859ZM157.584 125.275C156.862 125.539 156.145 125.802 155.589 126.25L155.562 126.277C155.617 126.056 155.589 125.834 155.506 125.64C155.728 123.838 157.835 122.341 160.08 122.396C160.662 123.228 159.803 124.309 158.749 124.808C158.377 124.984 157.979 125.13 157.584 125.275ZM155.562 126.277C155.451 126.832 154.952 127.414 154.37 127.719C154.442 127.619 154.511 127.518 154.581 127.417C154.861 127.014 155.14 126.61 155.562 126.277ZM154.348 127.746C154.325 127.78 154.302 127.817 154.274 127.855L154.247 127.893C154.221 127.929 154.196 127.964 154.175 127.996C153.704 128.578 153.039 129.132 152.152 129.188C152.482 128.638 153.161 128.315 153.829 127.997C154.002 127.915 154.176 127.832 154.342 127.746L154.348 127.746ZM162.02 98.6125C161.824 98.3275 161.834 97.9966 161.845 97.6642C161.85 97.4797 161.856 97.2935 161.826 97.1156C161.743 96.5612 161.355 96.0622 160.939 95.591C160.717 95.3415 160.496 95.092 160.191 94.898C159.886 94.7039 159.498 94.5653 159.137 94.6208C159.609 94.4267 160.135 94.2881 160.662 94.2327C160.673 94.2327 160.685 94.2324 160.697 94.2319L160.728 94.2302L160.776 94.2268C160.859 94.2206 160.948 94.214 161.022 94.2327C161.161 94.2604 161.272 94.3436 161.355 94.4267C161.604 94.6208 161.826 94.8425 161.993 95.092C162.187 95.7573 162.575 96.3949 163.129 96.8938C163.179 96.9367 163.231 96.9777 163.282 97.0182C163.43 97.1352 163.573 97.2487 163.656 97.3928C163.739 97.5314 163.767 97.7254 163.767 97.8918C163.794 98.1967 163.739 98.5848 163.379 98.7234C163.295 98.7511 163.205 98.758 163.115 98.765C163.025 98.7719 162.935 98.7788 162.852 98.8065L162.82 98.8151L162.786 98.8257L162.751 98.8368C162.672 98.8625 162.588 98.8897 162.492 98.8897C162.325 98.8897 162.131 98.7511 162.02 98.6125ZM168.407 130.234C168.263 130.255 168.119 130.275 167.98 130.297C167.038 130.491 166.4 130.879 166.012 131.322C165.652 131.738 165.513 132.209 165.402 132.653C165.347 132.875 165.291 133.124 165.347 133.346C165.394 133.52 165.514 133.694 165.634 133.868C165.724 133.999 165.814 134.13 165.873 134.261C166.04 134.566 166.04 134.926 165.568 135.175C164.182 134.122 163.212 133.013 162.381 131.849C162.353 130.934 164.016 130.158 165.846 129.687C166.539 129.521 167.287 129.354 168.008 129.243C168.729 129.132 169.754 129.049 170.115 129.354C170.392 129.604 170.031 129.881 169.56 130.02C169.214 130.121 168.807 130.178 168.407 130.234ZM167.481 88.2728C167.197 87.9992 166.954 87.696 166.712 87.393C166.29 86.867 165.869 86.3414 165.236 85.9721C165.513 85.9721 165.763 85.9166 166.012 85.8334C168.23 85.7226 170.419 87.1918 170.697 88.9659C169.699 89.548 168.257 89.0213 167.481 88.2728ZM165.236 85.9721L165.231 85.9715L165.224 85.9694L165.211 85.9581L165.236 85.9721ZM163.782 85.4058C164.271 85.5574 164.757 85.7084 165.186 85.9442C164.489 85.9383 163.743 85.6494 163.299 85.2527C163.459 85.3058 163.621 85.356 163.782 85.4058ZM163.295 85.249C163.294 85.2236 163.268 85.2236 163.268 85.2236L163.295 85.249ZM163.268 85.2236L163.248 85.2185L163.228 85.2128L163.193 85.2026L163.175 85.197C163.147 85.1879 163.117 85.178 163.088 85.1682C163.025 85.1474 162.963 85.1266 162.907 85.1127C162.103 84.8355 161.327 84.3643 161.161 83.699C161.888 83.8753 162.387 84.3666 162.882 84.8531C163.009 84.9782 163.138 85.1047 163.268 85.2236ZM219.373 110.477C218.791 110.421 218.237 110.699 217.793 110.948C217.522 111.103 217.1 111.381 216.739 111.619L216.525 111.76C216.452 111.808 216.384 111.852 216.324 111.89C215.936 111.946 215.548 112.085 215.299 112.306C216.13 112.168 216.934 112.001 217.71 111.807C217.932 111.752 218.181 111.669 218.237 111.502C218.245 111.487 218.25 111.472 218.255 111.456C218.258 111.444 218.262 111.432 218.265 111.419L218.27 111.397L218.275 111.381L218.277 111.373C218.281 111.361 218.286 111.349 218.292 111.336C218.337 111.247 218.435 111.212 218.544 111.172L218.552 111.169L218.584 111.158L218.605 111.15L218.625 111.142C218.777 111.101 218.929 111.052 219.08 111.004C219.233 110.956 219.387 110.906 219.54 110.865C219.548 110.857 219.559 110.851 219.57 110.846L219.579 110.843L219.595 110.837L219.607 110.833L219.616 110.83L219.623 110.827L219.634 110.822L219.642 110.816L219.646 110.813L219.651 110.809C219.734 110.754 219.734 110.643 219.651 110.588C219.595 110.532 219.484 110.477 219.373 110.477ZM216.555 98.861L216.546 98.862L216.369 98.9456L216.204 99.0246C215.856 99.1908 215.516 99.3531 215.16 99.4995C215.908 99.6658 216.795 99.8876 217.488 100.165C217.322 99.7213 217.073 99.2778 216.74 98.8897C216.712 98.862 216.685 98.8342 216.629 98.8342L216.609 98.8383L216.6 98.8419L216.588 98.8481L216.578 98.8529L216.567 98.8575L216.555 98.861ZM212.173 110.786L212.163 110.79L212.152 110.796C212.145 110.799 212.137 110.803 212.129 110.806L212.111 110.809C211.696 111.003 211.278 111.198 210.891 111.364L211.016 111.395C211.655 111.554 212.398 111.74 212.97 111.974C212.832 111.586 212.61 111.197 212.305 110.837C212.277 110.809 212.249 110.782 212.194 110.782L212.173 110.786ZM202.464 150.449C202.436 150.616 202.686 150.754 202.908 150.782C203.129 150.81 203.379 150.754 203.573 150.699C203.837 150.637 204.093 150.566 204.345 150.496L204.557 150.437C204.592 150.427 204.627 150.418 204.663 150.408C204.691 150.401 204.719 150.393 204.747 150.386C204.809 150.37 204.87 150.354 204.931 150.338C205.292 150.228 205.735 150.089 205.763 149.812C205.791 149.59 205.541 149.396 205.264 149.34C204.987 149.257 204.654 149.313 204.377 149.368C204.1 149.424 203.85 149.507 203.628 149.618C203.674 149.731 203.217 149.938 202.959 150.055C202.902 150.08 202.855 150.102 202.824 150.117L202.807 150.127C202.67 150.209 202.491 150.316 202.464 150.449ZM213.204 124.537C213.198 124.781 213.192 125.021 213.358 125.224C213.441 125.335 213.608 125.418 213.802 125.39C213.885 125.39 213.996 125.362 214.079 125.335C214.148 125.321 214.217 125.314 214.287 125.307L214.326 125.303L214.366 125.299L214.391 125.296L214.417 125.292C214.432 125.29 214.448 125.288 214.464 125.285L214.495 125.279C214.772 125.196 214.8 124.919 214.8 124.697C214.8 124.559 214.8 124.448 214.716 124.337C214.661 124.244 214.556 124.177 214.452 124.109C214.4 124.075 214.347 124.041 214.301 124.004C213.829 123.644 213.497 123.2 213.358 122.729C213.22 122.563 213.026 122.396 212.832 122.258C212.748 122.202 212.665 122.147 212.554 122.119L212.537 122.115L212.525 122.113L212.515 122.111L212.501 122.11L212.479 122.108C212.454 122.106 212.43 122.107 212.406 122.109L212.386 122.11L212.356 122.113L212.332 122.115L212.316 122.116L212.293 122.118L212.275 122.119L212.249 122.119C211.806 122.175 211.39 122.258 211.002 122.396C211.307 122.369 211.612 122.452 211.861 122.59C212.111 122.729 212.305 122.923 212.471 123.089C212.804 123.422 213.136 123.782 213.192 124.171C213.201 124.228 213.205 124.286 213.206 124.344C213.207 124.408 213.206 124.473 213.204 124.537ZM218.438 147.484C218.8 147.437 219.186 147.387 219.512 147.317C219.9 147.206 220.177 147.04 219.983 146.873C219.706 146.652 218.847 146.707 218.265 146.79C217.655 146.873 217.045 146.984 216.491 147.095C214.994 147.428 213.635 147.982 213.663 148.62C214.328 149.424 215.132 150.2 216.269 150.948C216.657 150.782 216.657 150.532 216.518 150.311C216.504 150.289 216.489 150.266 216.474 150.244C216.432 150.186 216.386 150.128 216.339 150.07C216.225 149.929 216.11 149.787 216.075 149.645C216.047 149.507 216.075 149.34 216.13 149.174L216.155 149.098C216.255 148.794 216.348 148.513 216.629 148.232C216.934 147.927 217.461 147.65 218.237 147.511L218.332 147.498L218.438 147.484ZM217.188 117.311C217.388 117.525 217.588 117.741 217.821 117.933C218.459 118.46 219.623 118.848 220.399 118.46C220.177 117.185 218.431 116.159 216.601 116.243C216.431 116.316 216.239 116.346 216.045 116.352C216.525 116.598 216.856 116.953 217.188 117.311ZM214.441 115.869C214.952 115.997 215.461 116.127 215.902 116.325C215.367 116.311 214.795 116.116 214.441 115.869ZM214.343 115.816C214.239 115.734 214.138 115.648 214.037 115.562C213.633 115.219 213.231 114.878 212.637 114.746C212.804 115.217 213.441 115.55 214.079 115.744C214.109 115.751 214.137 115.759 214.165 115.766L214.23 115.785L214.255 115.792L214.291 115.802L214.343 115.816ZM120.662 112.279C120.384 112.085 120.024 111.918 119.636 111.863C119.364 111.708 118.943 111.43 118.582 111.192L118.469 111.117L118.332 111.028L118.227 110.959L118.167 110.92C117.696 110.643 117.169 110.366 116.587 110.449C116.476 110.477 116.393 110.504 116.31 110.56C116.254 110.643 116.226 110.726 116.31 110.782C116.337 110.809 116.365 110.837 116.421 110.837C116.573 110.879 116.726 110.927 116.878 110.976C117.031 111.024 117.183 111.073 117.335 111.114C117.474 111.17 117.613 111.225 117.668 111.308C117.689 111.329 117.698 111.35 117.702 111.371L117.705 111.385L117.707 111.397L117.708 111.408C117.71 111.43 117.712 111.453 117.723 111.475C117.779 111.641 118.028 111.724 118.25 111.78C119.054 111.974 119.858 112.14 120.662 112.279ZM118.444 100.165C119.137 99.9153 120.024 99.6658 120.773 99.4995C120.544 99.3995 120.315 99.292 120.079 99.181C119.977 99.133 119.873 99.0843 119.767 99.0353C119.644 98.9779 119.517 98.9199 119.387 98.862L119.38 98.8556L119.369 98.8481L119.362 98.844L119.348 98.8386L119.344 98.8374L119.335 98.8358L119.328 98.835C119.32 98.8342 119.312 98.8342 119.303 98.8342C119.248 98.8342 119.22 98.862 119.193 98.8897C118.86 99.2778 118.61 99.7213 118.444 100.165ZM125.069 111.392C124.681 111.197 124.265 111.003 123.85 110.837C123.822 110.809 123.794 110.809 123.766 110.809C123.711 110.809 123.683 110.837 123.655 110.865C123.378 111.225 123.129 111.613 122.99 112.001C123.562 111.767 124.304 111.582 124.943 111.423L125.069 111.392ZM128.784 133.845C129.366 133.124 129.809 132.32 130.17 131.516C130.197 130.851 129.449 130.324 128.645 129.992C128.34 129.881 128.035 129.77 127.703 129.687C127.398 129.604 126.926 129.548 126.788 129.77C126.677 129.936 126.816 130.13 127.037 130.214C127.148 130.255 127.266 130.283 127.384 130.311C127.501 130.338 127.62 130.366 127.73 130.408C128.146 130.546 128.423 130.823 128.59 131.128C128.749 131.421 128.807 131.738 128.86 132.033L128.867 132.071C128.895 132.209 128.922 132.376 128.895 132.542C128.865 132.674 128.812 132.791 128.761 132.904C128.716 133.005 128.671 133.103 128.645 133.207C128.59 133.429 128.59 133.679 128.784 133.845ZM131.773 150.541C131.97 150.596 132.165 150.65 132.36 150.699C132.581 150.754 132.831 150.81 133.025 150.782C133.274 150.754 133.496 150.616 133.468 150.449C133.468 150.311 133.274 150.2 133.108 150.117C133.079 150.102 133.034 150.082 132.979 150.057L132.974 150.055C132.716 149.938 132.259 149.731 132.304 149.618C132.055 149.507 131.805 149.424 131.556 149.368C131.279 149.313 130.946 149.285 130.669 149.34C130.392 149.396 130.142 149.59 130.17 149.812C130.197 150.089 130.641 150.228 131.001 150.338C131.265 150.4 131.522 150.472 131.773 150.541ZM127.897 144.212C127.73 142.965 126.012 141.911 124.182 141.939C123.711 142.549 124.432 143.297 125.236 143.63C125.522 143.741 125.826 143.833 126.131 143.925C126.741 144.11 127.352 144.295 127.814 144.628L127.814 144.632L127.815 144.637L127.818 144.644L127.82 144.647L127.826 144.651L127.83 144.654L127.836 144.655L127.841 144.656C127.952 145.072 128.34 145.46 128.811 145.681L128.82 145.69L128.831 145.702L128.847 145.72L128.854 145.729L128.883 145.763L128.894 145.778C128.908 145.796 128.923 145.814 128.938 145.831C128.951 145.847 128.964 145.862 128.978 145.875C129.338 146.291 129.92 146.679 130.613 146.707C130.329 146.28 129.719 146.036 129.133 145.801L129.035 145.761L128.921 145.715L128.839 145.681H128.811C128.74 145.597 128.672 145.512 128.605 145.427C128.382 145.147 128.16 144.868 127.841 144.656C127.814 144.517 127.814 144.351 127.897 144.212ZM122.028 125.387C122.075 125.402 122.127 125.418 122.186 125.418C122.353 125.418 122.519 125.335 122.63 125.252C122.814 125.049 122.802 124.809 122.79 124.565C122.784 124.442 122.778 124.318 122.796 124.198C122.852 123.782 123.184 123.45 123.517 123.117C123.711 122.923 123.905 122.757 124.127 122.618C124.348 122.48 124.681 122.396 124.986 122.424C124.598 122.286 124.154 122.202 123.739 122.147L123.715 122.147C123.685 122.146 123.655 122.143 123.626 122.141C123.555 122.134 123.488 122.129 123.434 122.147C123.323 122.175 123.24 122.23 123.157 122.286C122.962 122.424 122.768 122.59 122.63 122.757C122.464 123.228 122.159 123.699 121.687 124.032C121.641 124.069 121.589 124.103 121.536 124.137C121.432 124.204 121.327 124.272 121.272 124.365C121.216 124.475 121.188 124.614 121.188 124.725C121.161 124.947 121.188 125.224 121.493 125.307C121.56 125.34 121.647 125.344 121.735 125.347C121.794 125.349 121.854 125.351 121.909 125.363C121.948 125.363 121.986 125.374 122.028 125.387ZM117.696 146.79C117.086 146.707 116.254 146.652 115.977 146.873C115.783 147.04 116.06 147.206 116.448 147.317C116.647 147.36 116.869 147.388 117.093 147.416L117.208 147.431C117.383 147.453 117.558 147.478 117.723 147.511C118.5 147.65 119.026 147.927 119.331 148.232C119.636 148.537 119.747 148.869 119.83 149.174C119.886 149.313 119.941 149.479 119.886 149.645C119.85 149.806 119.734 149.943 119.62 150.079C119.556 150.155 119.492 150.231 119.442 150.311C119.331 150.532 119.331 150.782 119.691 150.948C120.828 150.228 121.632 149.424 122.297 148.62C122.325 147.954 120.967 147.428 119.47 147.095C118.915 146.984 118.305 146.873 117.696 146.79ZM119.359 116.215C117.557 116.159 115.783 117.185 115.561 118.432C116.337 118.848 117.502 118.46 118.139 117.906C118.374 117.712 118.575 117.499 118.776 117.286C119.108 116.935 119.438 116.585 119.919 116.325C119.723 116.318 119.53 116.288 119.359 116.215ZM120.052 116.297C120.562 116.284 121.133 116.091 121.511 115.844C121.427 115.865 121.342 115.887 121.256 115.908C120.843 116.01 120.417 116.115 120.052 116.297ZM121.722 115.759L121.771 115.746L121.805 115.736C121.829 115.729 121.854 115.723 121.881 115.716C122.547 115.522 123.184 115.189 123.323 114.718C122.729 114.85 122.327 115.192 121.923 115.535C121.822 115.62 121.722 115.706 121.618 115.788C121.654 115.779 121.688 115.769 121.722 115.759Z" fill="white" fill-opacity="0.07"/>
<path d="M167.98 197.241C220.675 197.241 263.393 196.645 263.393 195.91C263.393 195.176 220.675 194.58 167.98 194.58C115.285 194.58 72.5671 195.176 72.5671 195.91C72.5671 196.645 115.285 197.241 167.98 197.241Z" fill="white" fill-opacity="0.07"/>
<path d="M167.98 202.258C209.101 202.258 242.437 201.861 242.437 201.371C242.437 200.881 209.101 200.484 167.98 200.484C126.859 200.484 93.5236 200.881 93.5236 201.371C93.5236 201.861 126.859 202.258 167.98 202.258Z" fill="white" fill-opacity="0.07"/>
</g>
<defs>
<clipPath id="clip0_1214_1515">
<rect width="336" height="192" fill="white"/>
</clipPath>
</defs>
</svg>
