<svg width="336" height="192" viewBox="0 0 336 192" fill="none" xmlns="http://www.w3.org/2000/svg">
<rect width="336" height="192" fill="#775D47"/>
<path fill-rule="evenodd" clip-rule="evenodd" d="M196.947 109.606C217.452 109.801 231.484 110.197 231.484 110.654C231.484 111.304 203.075 111.831 168.032 111.831C132.988 111.831 104.58 111.304 104.58 110.654C104.58 110.197 118.612 109.801 139.117 109.606C139.987 108.11 140.709 105.829 141.269 103.578C140.961 103.565 140.652 103.555 140.345 103.549C140.183 103.969 139.493 104.199 138.857 104.186C138.373 104.164 137.523 103.825 136.907 103.58C136.73 103.509 136.572 103.446 136.448 103.401C137.612 102.927 138.153 101.872 136.84 101.682C136.34 101.611 136.25 101.674 136.096 101.783C135.989 101.859 135.849 101.958 135.514 102.047C133.092 102.697 130.101 102.102 128.532 100.654C130.372 100.072 132.524 99.1922 132.456 97.7849C132.442 97.5142 132.334 97.23 132.023 97.0676C131.685 96.8917 131.238 96.9053 130.819 96.9188C129.574 96.9865 128.342 97.0406 127.097 97.0947C127.503 96.5534 128.451 96.2422 129.317 96.364C130.291 95.8362 131.387 94.9431 130.697 94.2124C129.858 94.5507 128.613 94.1041 128.532 93.4275C129.993 93.3869 131.441 93.1298 132.754 92.6833L131.901 91.2895L127.557 90.7076C129.75 90.3422 131.793 89.5438 133.403 88.4477C133.904 88.1094 134.31 87.4599 133.647 87.2298C133.539 87.1892 133.417 87.1757 133.295 87.1757L131.198 87.1351C131.333 86.4856 132.334 86.0931 133.268 85.9713C133.522 85.9383 133.78 85.9142 134.039 85.8901C134.731 85.8256 135.424 85.7611 136.015 85.5248C136.827 85.2 137.287 84.3204 136.57 83.8874C136.245 83.6844 135.798 83.6438 135.379 83.6168C134.107 83.522 132.821 83.4544 131.549 83.4273C131.958 83.0452 132.546 82.7914 133.126 82.5409L133.173 82.5207C134.701 81.8717 136.242 81.2093 137.783 80.5468L137.788 80.545C135.771 80.1255 133.606 80.0984 131.563 80.4503L135.785 78.3528C134.729 78.6235 133.43 78.3257 132.835 77.6627L136.083 77.1349L135.189 76.553C135.866 76.6613 136.61 76.5395 137.138 76.2283C136.218 75.9576 135.311 75.7005 134.391 75.4434C135.555 75.4569 136.827 75.254 137.517 74.6044C138.207 73.9549 137.909 72.8182 136.786 72.6152C136.596 72.5784 136.4 72.5694 136.205 72.5605C135.97 72.5497 135.736 72.539 135.514 72.4799C135.514 72.4799 138.37 71.3432 138.559 70.5042C138.748 69.6788 137.368 68.8127 136.286 69.1916C136.556 68.6638 137.382 68.3255 138.167 68.3932C137.598 68.3391 137.179 67.8925 137.341 67.5136C137.964 67.5407 138.6 67.4189 139.127 67.1753C139.371 66.9723 139.114 66.6611 138.803 66.5258C138.705 66.4834 138.6 66.4476 138.494 66.4118C138.263 66.3335 138.031 66.2549 137.882 66.1063C137.436 65.6597 138.112 65.0643 138.816 64.8207C138.904 64.7897 138.995 64.7588 139.088 64.7276C139.719 64.5136 140.41 64.2798 140.575 63.8194L138.559 63.684C138.072 63.1563 138.776 62.4932 139.506 62.1279L139.567 62.0975L139.69 62.0367C140.381 61.6962 141.146 61.3187 141.171 60.7476L139.114 60.5175C139.493 60.2806 139.869 60.0436 140.244 59.8067C140.62 59.57 140.995 59.3333 141.374 59.0967C141.577 58.9749 141.78 58.853 141.928 58.6907C142.186 58.4065 142.267 58.0682 142.334 57.7435C142.713 55.9999 143.078 54.2563 143.443 52.5127L143.443 52.5096L143.444 52.5066C143.539 54.4416 144.094 56.9857 146.529 57.9194L145.284 58.3118C145.555 58.9072 146.137 59.435 146.908 59.7598C146.299 59.8409 145.758 60.1792 145.582 60.5987C146.489 61.1671 147.558 61.6001 148.722 61.8437C148.004 62.0737 147.355 62.385 146.814 62.7774C146.886 62.8391 146.949 62.9077 147.016 62.9807C147.273 63.2605 147.59 63.6053 148.749 63.8735C148.414 64.0109 147.817 64.121 147.219 64.2316C146.874 64.2952 146.528 64.3591 146.232 64.4283L146.227 64.4236L146.223 64.4194L146.221 64.4171L146.22 64.4147L146.219 64.4121L146.218 64.4091L146.218 64.4012C145.744 63.8735 144.662 63.684 143.877 63.9817C143.864 64.32 144.405 64.5366 144.892 64.5636C145.071 64.5718 145.255 64.5652 145.438 64.5587C145.559 64.5544 145.68 64.5501 145.799 64.5501L145.677 64.5907L145.714 64.5873C145.848 64.575 145.973 64.5636 146.096 64.5636L146.34 64.6042H146.353C146.529 64.7666 146.827 64.8749 147.098 64.9019L147.114 64.9079L147.12 64.9099C147.134 64.9157 147.15 64.9223 147.165 64.929C147.189 64.9392 147.213 64.9493 147.233 64.9561C147.531 65.0778 147.896 65.159 148.207 65.0643C147.976 64.9381 147.671 64.9263 147.369 64.9147L147.264 64.9104L147.21 64.9079L147.158 64.905L147.111 64.9019H147.098L147.024 64.8688L146.943 64.8314C146.754 64.7442 146.566 64.6574 146.353 64.6042L146.313 64.5636C147.792 64.5768 148.833 65.2989 149.989 66.1009L150.075 66.1604L150.01 66.1577L149.938 66.1544L149.834 66.1492C149.127 66.1141 148.119 66.0641 148.058 66.4987C148.024 66.7497 148.56 66.8965 149.162 67.0613C149.729 67.2164 150.354 67.3874 150.616 67.676C150.251 67.6083 149.371 67.8655 148.857 68.1361C148.6 68.0143 148.234 67.906 147.869 67.8249C147.598 67.7707 147.301 67.7166 147.003 67.676C146.705 67.6354 146.299 67.6083 146.164 67.7166C146.056 67.7978 146.205 67.8925 146.394 67.9331C146.491 67.954 146.599 67.9677 146.709 67.9816C146.812 67.9947 146.918 68.0082 147.017 68.0278C147.395 68.0955 147.653 68.2308 147.801 68.3797C147.95 68.5285 148.004 68.6909 148.045 68.8398C148.072 68.9074 148.099 68.9886 148.072 69.0698C148.055 69.148 147.998 69.215 147.942 69.2817C147.911 69.3187 147.88 69.356 147.856 69.3946C147.801 69.5028 147.801 69.6246 147.977 69.7058C148.41 69.4216 148.749 69.1239 149.033 68.8127L149.175 68.8692C150.078 69.2292 151.336 69.7301 151.994 70.4844C153.385 69.3952 155.36 68.8111 157.301 68.921C157.653 68.4473 156.922 67.9331 156.272 67.7707C156.149 67.743 156.029 67.7191 155.91 67.6952C155.389 67.5909 154.876 67.4881 154.094 67.0806C154.094 67.0806 156.543 65.9033 157.166 65.0779C157.184 65.0529 157.203 65.0282 157.222 65.0037L157.243 64.976L157.279 64.9287L157.326 64.8684L157.328 64.8657L157.33 64.8634C157.705 64.382 158.007 63.9949 157.369 63.7111C156.89 63.4982 155.957 63.6691 155.135 63.8197C154.703 63.8989 154.302 63.9724 154.013 63.9818C154.539 63.1711 155.794 62.5571 157.078 61.9293L157.08 61.9282L157.082 61.9272C157.446 61.7489 157.814 61.569 158.167 61.3836C159.818 61.749 160.4 61.5731 161.685 60.6664C160.968 59.665 159.371 59.5974 157.978 59.8274C156.57 60.0575 155.298 60.4769 154.134 61.14C154.356 60.9444 154.557 60.7644 154.744 60.5975C156.09 59.3913 156.67 58.8711 158.857 58.1224C157.872 57.932 157.55 57.7264 157.118 57.4499C156.843 57.2744 156.523 57.0702 155.961 56.8233C156.534 56.4906 157.023 56.096 157.499 55.7104C158.283 55.0766 159.037 54.4673 160.088 54.1981C160.251 51.4646 157.585 53.6568 157.585 53.6568C158.362 52.5238 159.964 51.7741 161.109 51.2385L161.251 51.1722L161.32 51.1398C161.672 51.5864 162.078 52.0194 162.619 52.4254C162.849 52.3036 162.849 52.1277 162.768 51.9788C162.739 51.915 162.695 51.8512 162.651 51.7874C162.592 51.7024 162.534 51.6173 162.511 51.5323C162.484 51.424 162.511 51.3022 162.538 51.194C162.592 50.9774 162.66 50.7474 162.836 50.5444C163.025 50.3279 163.336 50.1385 163.796 50.0437C163.864 50.0331 163.933 50.0234 164.003 50.0136C164.198 49.9862 164.399 49.9582 164.568 49.9084C164.798 49.8408 164.974 49.7054 164.852 49.5972C164.676 49.4483 164.175 49.4889 163.823 49.5431C163.472 49.5972 163.106 49.6784 162.768 49.7596C162.308 49.8678 161.875 50.0167 161.564 50.2061C160.941 49.8272 159.872 49.4618 159.412 49.5431C159.732 49.1375 160.499 48.8963 161.194 48.6775C161.938 48.4436 162.6 48.2351 162.551 47.8786C162.469 47.2761 161.293 47.3337 160.428 47.376L160.321 47.3812L160.217 47.386L160.149 47.3888L160.075 47.3914L160.239 47.261C161.634 46.1481 162.892 45.1441 164.689 45.1181L164.683 45.128L164.678 45.135L164.674 45.1393L164.668 45.1461L164.662 45.1519L164.654 45.1601L164.648 45.1669L164.645 45.171L164.642 45.1753L164.64 45.178L164.637 45.1816L164.635 45.1857C164.392 45.2568 164.171 45.3735 163.95 45.4902C163.877 45.5287 163.802 45.5683 163.729 45.6052H163.715C163.632 45.6099 163.548 45.613 163.464 45.6161C163.066 45.6307 162.663 45.6454 162.362 45.8353C162.754 45.9841 163.201 45.8623 163.566 45.6864L163.729 45.6052C164.053 45.5781 164.432 45.4158 164.635 45.1857H164.649C164.733 45.1616 164.828 45.1483 164.915 45.1361L164.947 45.1316C165.109 45.1316 165.271 45.1451 165.447 45.1722C165.435 45.1662 165.424 45.1609 165.413 45.156L165.374 45.1388L165.355 45.1308L165.339 45.1238L165.318 45.1141L165.298 45.1045C165.444 45.1045 165.592 45.1088 165.74 45.1131C165.963 45.1196 166.188 45.1262 166.408 45.1181C167.003 45.0775 167.68 44.7662 167.653 44.2926C166.706 43.8731 165.366 44.1437 164.784 44.888L164.784 44.8926L164.783 44.8955L164.782 44.8975L164.781 44.9017L164.779 44.9046L164.777 44.9083L164.774 44.9162L164.771 44.9234L164.771 44.9257L164.771 44.9286C164.402 44.8276 163.97 44.7361 163.538 44.6448C162.814 44.4915 162.092 44.3388 161.685 44.1437C163.098 43.7586 163.486 43.2719 163.801 42.8777C163.885 42.7733 163.963 42.6754 164.053 42.5876C163.377 42.0327 162.578 41.5862 161.712 41.2614C163.133 40.9096 164.459 40.3006 165.555 39.4887C165.339 38.8933 164.676 38.4062 163.918 38.2979C164.865 37.8378 165.583 37.0935 165.907 36.241L164.378 35.6862C167.369 34.3736 168.059 30.747 168.167 28C168.409 29.3494 168.655 30.6948 168.901 32.0384L168.904 32.0567C169.111 33.1862 169.317 34.3144 169.52 35.4426C169.602 35.9027 169.696 36.3899 170.021 36.7823C170.21 36.9988 170.454 37.1883 170.698 37.3642C171.618 38.0273 172.552 38.7039 173.472 39.3805L170.955 39.7052C170.98 40.5273 171.922 41.0627 172.768 41.5437L172.775 41.5475L172.881 41.6078L172.985 41.6674C173.878 42.1816 174.744 43.1288 174.148 43.8731L171.672 44.0626C171.871 44.7197 172.712 45.0512 173.488 45.3572L173.493 45.3592C173.61 45.4053 173.726 45.4509 173.837 45.497C174.69 45.8623 175.529 46.7013 174.974 47.3373C174.801 47.5371 174.525 47.6516 174.248 47.7666C174.112 47.8229 173.975 47.8795 173.851 47.9463C173.472 48.1492 173.16 48.5823 173.445 48.8664C174.081 49.2183 174.866 49.3807 175.637 49.3536C175.839 49.8938 175.328 50.5285 174.626 50.5981C175.586 50.5052 176.598 50.992 176.922 51.7352C175.583 51.194 173.905 52.4118 174.135 53.6027C174.378 54.7935 177.87 56.4173 177.87 56.4173C177.595 56.5088 177.295 56.523 176.994 56.5373C176.76 56.5484 176.525 56.5595 176.3 56.6068C174.933 56.891 174.554 58.5148 175.407 59.435C176.259 60.3552 177.816 60.6664 179.236 60.6258C178.676 60.8081 178.116 60.9937 177.556 61.1793L177.552 61.1806C176.99 61.3667 176.428 61.5528 175.867 61.7354C176.516 62.182 177.437 62.3579 178.262 62.1955L177.166 63.0345L181.144 63.7788C180.414 64.7125 178.817 65.1455 177.531 64.7666L182.714 67.7437C180.211 67.243 177.545 67.2836 175.082 67.8925C176.022 68.3594 176.966 68.8296 177.91 69.2999C178.854 69.7701 179.798 70.2403 180.738 70.7072C181.469 71.059 182.213 71.4379 182.728 71.9927C181.158 72.0469 179.588 72.1281 178.032 72.2634C177.518 72.304 176.963 72.3716 176.571 72.6423C175.691 73.2648 176.259 74.5097 177.261 74.9833C177.981 75.3241 178.821 75.4127 179.658 75.5011C179.985 75.5355 180.311 75.57 180.63 75.6193C180.864 75.6555 181.101 75.7071 181.333 75.7743C181.473 75.668 181.602 75.5684 181.723 75.4747C182.812 74.636 183.285 74.2712 185.055 73.7519C184.271 73.613 184.009 73.4692 183.663 73.2787C183.436 73.1537 183.172 73.0086 182.701 72.8317C183.168 72.6005 183.567 72.3225 183.958 72.0503C184.597 71.6054 185.214 71.176 186.07 70.9914C186.205 69.0698 184.027 70.6125 184.027 70.6125C184.658 69.8015 185.986 69.2721 186.93 68.8963L187.071 68.8398C187.356 69.151 187.694 69.4487 188.127 69.7329C188.316 69.6517 188.316 69.5299 188.249 69.4216C188.224 69.3823 188.192 69.343 188.161 69.3036C188.105 69.2347 188.049 69.1657 188.032 69.0969C188.019 69.0292 188.032 68.948 188.059 68.8668L188.072 68.8294C188.12 68.6814 188.166 68.5441 188.303 68.4067C188.452 68.2579 188.709 68.1226 189.088 68.0549L189.185 68.0421C189.362 68.019 189.551 67.9944 189.71 67.9602C189.9 67.9196 190.035 67.8249 189.94 67.7437C189.805 67.6354 189.385 67.6625 189.101 67.7031C188.804 67.7437 188.506 67.7978 188.235 67.8519C187.856 67.9196 187.504 68.0278 187.247 68.1632C186.733 67.906 185.854 67.6489 185.488 67.7031C185.751 67.4145 186.375 67.2435 186.942 67.0885C187.544 66.9237 188.081 66.7768 188.046 66.5258C187.986 66.0922 186.993 66.141 186.279 66.176L186.166 66.1815L186.145 66.1825L186.029 66.1875L186.115 66.128C187.271 65.326 188.312 64.6039 189.791 64.5907L189.751 64.6313C189.538 64.6845 189.35 64.7712 189.161 64.8585L189.09 64.8913L189.007 64.929H188.993C188.909 64.935 188.822 64.9384 188.735 64.9417C188.433 64.9534 188.128 64.9652 187.897 65.0914C188.208 65.1861 188.573 65.1049 188.871 64.9831C188.881 64.9797 188.892 64.9755 188.904 64.9709L188.939 64.9561C188.962 64.9459 188.986 64.9357 189.007 64.929C189.277 64.9019 189.588 64.7937 189.751 64.6313H189.764L189.775 64.6279L189.786 64.6248L189.805 64.6199L189.814 64.6178L189.83 64.6144L189.845 64.6117L189.858 64.6097L189.881 64.6065L189.927 64.6012L189.951 64.5985L189.964 64.5969L189.986 64.594L190.008 64.5907C190.143 64.5907 190.292 64.6042 190.427 64.6178L190.306 64.5772C190.424 64.5772 190.544 64.5815 190.665 64.5858C190.847 64.5923 191.033 64.5988 191.212 64.5907C191.699 64.5636 192.254 64.3471 192.227 64.0088C191.456 63.7111 190.36 63.9006 189.886 64.4283L189.884 64.4304L189.878 64.4361L189.877 64.4381L189.875 64.4398L189.874 64.4425L189.873 64.4445L189.873 64.4509L189.873 64.4554C189.575 64.3848 189.223 64.3198 188.872 64.2549C188.28 64.1457 187.686 64.0363 187.356 63.9006C188.514 63.6323 188.831 63.2875 189.088 63.0078C189.155 62.935 189.218 62.866 189.291 62.8045C188.749 62.412 188.1 62.1008 187.383 61.8708C188.546 61.6272 189.629 61.1941 190.522 60.6258C190.36 60.2063 189.818 59.868 189.196 59.7868C189.967 59.462 190.563 58.9343 190.82 58.3389L189.575 57.9465C192.011 57.0127 192.565 54.4687 192.66 52.5336C193.037 54.2719 193.401 56.0101 193.765 57.7484L193.766 57.7529L193.767 57.7578L193.77 57.7705C193.837 58.1088 193.919 58.4471 194.176 58.7178C194.325 58.8666 194.528 59.002 194.731 59.1237C195.106 59.3583 195.478 59.5928 195.85 59.8273L195.871 59.8411C196.243 60.0756 196.615 60.3101 196.99 60.5446L194.934 60.7747C194.958 61.3458 195.724 61.7232 196.414 62.0638L196.416 62.0647L196.421 62.0673L196.499 62.1058L196.548 62.1301L196.598 62.1549C197.329 62.5203 198.032 63.1834 197.545 63.7111L195.529 63.8464C195.684 64.3111 196.384 64.545 197.03 64.7606L197.032 64.7612L197.108 64.7865L197.2 64.8175L197.236 64.83L197.288 64.8478C197.992 65.0914 198.682 65.6868 198.222 66.1333C198.073 66.2733 197.84 66.3554 197.607 66.4372C197.503 66.474 197.398 66.5109 197.302 66.5528C196.99 66.7017 196.747 66.9994 196.977 67.2024C197.491 67.446 198.141 67.5677 198.763 67.5407C198.923 67.9147 198.517 68.3678 197.96 68.4185C198.738 68.3592 199.551 68.7092 199.819 69.2187C198.723 68.8398 197.356 69.6923 197.545 70.5313C197.735 71.3567 200.59 72.5069 200.59 72.5069C200.37 72.5752 200.129 72.584 199.885 72.5928C199.694 72.5997 199.502 72.6066 199.318 72.6423C198.195 72.8453 197.897 73.9819 198.587 74.6315C199.291 75.281 200.549 75.4975 201.713 75.4705C200.793 75.7411 199.886 75.9982 198.966 76.2553C199.494 76.5666 200.238 76.6884 200.915 76.5801L200.022 77.162L203.269 77.6897C202.66 78.3393 201.375 78.6505 200.319 78.3799L204.541 80.4773C202.512 80.112 200.333 80.1526 198.317 80.5721C199.846 81.2216 201.388 81.8847 202.931 82.5477L202.978 82.568C203.558 82.8185 204.146 83.0723 204.555 83.4544C203.269 83.495 201.997 83.5491 200.725 83.6438L200.705 83.6458C200.292 83.6857 199.854 83.728 199.534 83.9145C198.817 84.334 199.277 85.2271 200.089 85.5519C200.69 85.7884 201.378 85.8527 202.067 85.9172C202.325 85.9412 202.583 85.9653 202.836 85.9984C203.77 86.1337 204.771 86.5126 204.907 87.1622L202.809 87.2028C202.687 87.2028 202.566 87.2163 202.457 87.2569C201.794 87.4734 202.2 88.1365 202.701 88.4748C204.311 89.5844 206.355 90.3693 208.547 90.7346L204.162 91.2895L203.31 92.6833C204.623 93.1298 206.07 93.3869 207.532 93.4275C207.451 94.1041 206.206 94.5507 205.367 94.2124C204.677 94.9296 205.759 95.8227 206.747 96.364C207.613 96.2287 208.56 96.5534 208.966 97.0947C207.721 97.0271 206.49 96.9729 205.245 96.9188C204.826 96.9053 204.365 96.8917 204.041 97.0676C203.743 97.23 203.621 97.5142 203.608 97.7849C203.54 99.1922 205.692 100.072 207.573 100.681C206.003 102.129 203.012 102.724 200.59 102.075C200.255 101.985 200.116 101.887 200.008 101.81C199.854 101.701 199.764 101.638 199.264 101.709C197.951 101.899 198.492 102.968 199.656 103.428L199.584 103.455L199.527 103.477L199.469 103.5L199.417 103.52L199.372 103.538L199.314 103.562L199.183 103.615L199.179 103.616C198.568 103.864 197.736 104.202 197.248 104.213C196.625 104.24 195.935 103.996 195.759 103.577C195.441 103.582 195.121 103.593 194.802 103.607C195.361 105.848 196.08 108.117 196.947 109.606ZM186.384 90.3426C186.665 90.2943 186.892 90.1272 187.058 89.9498L187.065 89.942L187.075 89.9313L187.089 89.9147L187.098 89.9028L187.113 89.8844L187.125 89.8705L187.128 89.8665L187.134 89.8608L187.139 89.8551C187.369 89.7468 187.572 89.5438 187.613 89.3544C187.452 89.4723 187.342 89.6072 187.229 89.7457L187.183 89.8022L187.168 89.8205L187.139 89.8551H187.126C187.05 89.8913 186.969 89.9252 186.888 89.9591C186.65 90.0592 186.409 90.1604 186.28 90.3277L186.309 90.3316L186.338 90.3355L186.356 90.3382L186.384 90.3426ZM181.735 91.7493C181.67 91.869 181.627 91.9984 181.603 92.1294C181.814 92.01 182.022 91.8879 182.227 91.7631C182.063 91.7617 181.899 91.7571 181.735 91.7493ZM185.693 97.072C185.819 96.9758 185.94 96.8758 186.057 96.7722L186.069 96.7891L186.078 96.8033L186.086 96.8166L186.093 96.8301L186.097 96.8376C186.136 96.9162 186.162 97.004 186.187 97.0903C186.205 97.1522 186.223 97.2142 186.246 97.2706C186.341 97.5277 186.544 97.7172 186.747 97.8119C186.946 97.918 187.171 97.9461 187.383 97.9727L187.396 97.9743C187.504 97.9878 187.626 98.0014 187.734 97.9878C187.825 97.9727 187.907 97.9407 187.991 97.9084L187.993 97.9073L188.035 97.8912C188.055 97.8837 188.075 97.8763 188.095 97.8692L188.109 97.8645L188.124 97.8595L188.138 97.8549L188.153 97.8505L188.173 97.8448L188.195 97.839C188.357 97.7984 188.519 97.7984 188.641 97.9202C188.127 98.3261 187.572 98.5968 187.004 98.8268C186.557 98.8268 186.165 98.3667 185.948 97.866C185.867 97.6766 185.786 97.4736 185.732 97.2571C185.717 97.1998 185.702 97.1361 185.693 97.072ZM177.774 98.349C177.427 98.2284 177.273 98.0991 177.151 97.9973C176.965 97.8412 176.855 97.7496 176.246 97.8525C174.635 98.1231 175.299 99.6252 176.719 100.288C176.562 100.354 176.361 100.448 176.134 100.553C175.385 100.902 174.362 101.377 173.769 101.398C172.998 101.425 172.146 101.087 171.943 100.491C171.551 100.499 171.158 100.515 170.766 100.536C171.492 103.917 172.443 107.357 173.602 109.481C179.184 109.49 184.559 109.512 189.633 109.547C190.471 108.094 191.17 105.928 191.718 103.77C190.084 103.826 188.705 103.744 187.978 103.116C187.775 102.941 185.15 103.685 184.906 103.82C184.806 103.878 184.86 103.783 184.957 103.615C185.198 103.195 185.702 102.316 184.717 102.21C184.616 102.198 183.976 102.389 183.276 102.599C182.379 102.866 181.384 103.164 181.293 103.103C181.063 102.954 180.901 102.711 180.982 102.494C181.659 100.857 178.979 100.735 177.531 101.046L179.791 99.3275C178.844 98.7998 177.667 98.475 176.462 98.4073C176.895 98.4073 177.346 98.4031 177.774 98.349ZM146.43 109.547C152.044 109.509 158.025 109.485 164.248 109.479C165.377 107.405 166.31 104.072 167.03 100.765C165.018 100.848 163.315 100.733 162.416 99.8417C162.172 99.6117 158.952 100.667 158.654 100.857C158.529 100.935 158.599 100.793 158.72 100.546C159.018 99.9419 159.625 98.7099 158.424 98.5562C158.306 98.5393 157.594 98.7829 156.788 99.0622C156.624 99.1359 156.466 99.2154 156.313 99.3004L158.573 101.019C157.125 100.694 154.459 100.83 155.122 102.467C155.203 102.67 155.041 102.927 154.811 103.076C154.712 103.137 153.708 102.836 152.81 102.567C152.117 102.36 151.488 102.171 151.387 102.183C150.407 102.289 150.902 103.153 151.144 103.576C151.243 103.748 151.3 103.848 151.198 103.793C150.954 103.658 148.329 102.914 148.126 103.089C147.386 103.714 145.987 103.794 144.337 103.737C144.887 105.906 145.588 108.086 146.43 109.547ZM151.963 70.5089C151.518 70.2223 149.929 69.3109 150.034 70.9643C150.9 71.151 151.521 71.5827 152.167 72.0322C152.465 72.2388 152.767 72.4491 153.101 72.6412C153.425 72.5743 153.759 72.5375 154.094 72.534C154.594 72.5205 155.271 72.4934 155.352 72.0739C155.393 71.8845 155.285 71.695 155.095 71.5732C154.107 70.9372 152.795 70.6801 151.563 70.856C151.69 70.7353 151.824 70.6195 151.963 70.5089ZM151.132 73.7493C152.855 74.2619 153.332 74.6311 154.424 75.4782L154.431 75.4832C154.577 75.5963 154.733 75.7178 154.906 75.8494C153.958 75.3758 152.917 75.078 151.78 74.9157C150.63 74.7533 149.331 74.8074 148.749 75.5111C149.791 76.1471 150.278 76.2689 151.617 76.0118C151.916 76.1485 152.226 76.2802 152.534 76.4109C153.176 76.6832 153.809 76.9519 154.298 77.2507C154.843 76.6874 155.394 76.1281 155.988 75.6193C155.31 74.0988 152.997 73.2551 151.132 73.7493ZM153.874 77.6889C153.256 77.5942 152.604 77.5135 152.253 77.6491C151.724 77.8491 151.972 78.1206 152.277 78.4548L152.278 78.4566C152.323 78.5059 152.371 78.558 152.416 78.6099C152.485 78.6885 152.582 78.7716 152.696 78.8564C153.1 78.4826 153.488 78.0878 153.874 77.6889ZM152.385 80.8618C152.233 81.0033 152.176 81.1657 152.308 81.3163C152.437 81.3093 152.567 81.3057 152.697 81.3054C152.778 81.2349 152.856 81.1618 152.93 81.0863C152.735 80.9889 152.555 80.9158 152.385 80.8618ZM153.947 83.6475C154.111 83.8405 154.56 83.8604 154.919 83.8604C155.004 83.8614 155.088 83.8647 155.172 83.87L155.285 83.7916L155.379 83.725C154.9 83.725 154.421 83.6989 153.947 83.6475ZM150 96.809C150.108 96.7894 150.22 96.7721 150.334 96.7572C150.418 96.881 150.389 97.1118 150.332 97.2841C150.264 97.4871 150.197 97.6901 150.115 97.8931C149.885 98.4073 149.506 98.8674 149.06 98.8539C148.492 98.5968 147.937 98.3261 147.422 97.9472C147.544 97.8254 147.72 97.8254 147.869 97.866C147.929 97.8825 147.99 97.9056 148.051 97.9291C148.141 97.9635 148.233 97.9989 148.329 98.0149C148.437 98.0284 148.559 98.0149 148.667 98.0014C148.884 97.9743 149.114 97.9337 149.317 97.839C149.52 97.7307 149.723 97.5548 149.818 97.2977C149.838 97.2416 149.855 97.1856 149.871 97.1303C149.898 97.0388 149.924 96.9489 149.967 96.8647C149.976 96.8451 149.987 96.8265 150 96.809ZM181.38 75.7884C182.012 75.9785 182.593 76.2864 182.915 76.7169C183.137 76.619 183.366 76.522 183.596 76.4244L183.599 76.4233C183.897 76.2974 184.197 76.1704 184.487 76.0388C185.826 76.2959 186.3 76.1741 187.356 75.5381C186.76 74.8345 185.461 74.7803 184.324 74.9427C183.26 75.1075 182.279 75.3671 181.38 75.7884ZM181.769 77.2995L180.59 77.3244C180.454 77.3244 180.305 77.3514 180.17 77.4056C179.345 77.7168 179.859 78.6505 180.468 79.1377C180.805 79.4036 181.158 79.6569 181.525 79.8967C182.117 79.633 183.307 79.0681 183.688 78.637L183.716 78.6049L183.733 78.5857L183.754 78.5623L183.786 78.5269L183.818 78.4917C184.125 78.153 184.373 77.8781 183.851 77.6762C183.443 77.5223 182.654 77.647 181.974 77.7545C181.638 77.8077 181.328 77.8567 181.104 77.8656C181.259 77.6613 181.489 77.475 181.769 77.2995ZM182.398 80.4276C182.871 80.6949 183.363 80.9411 183.87 81.1648C183.874 80.885 183.393 80.6208 182.958 80.5315C182.85 80.5094 182.745 80.4907 182.64 80.4719L182.637 80.4714L182.523 80.451L182.467 80.4407L182.398 80.4276ZM186.723 82.4787L187.64 82.3448C187.542 82.3255 187.443 82.3055 187.346 82.2846L187.294 82.2736C187.233 82.2603 187.171 82.2466 187.11 82.2327L187.125 82.2256L187.147 82.2151L187.174 82.2026L187.197 82.1924L187.22 82.1824C187.369 82.1282 187.532 82.0741 187.68 82.0335C187.829 81.9929 188.059 81.9659 188.127 82.0741C188.181 82.1553 188.1 82.25 188.005 82.2906C187.915 82.3246 187.815 82.3491 187.721 82.372L187.718 82.3727L187.699 82.3773L187.667 82.3854C187.464 82.453 187.329 82.5883 187.247 82.7372C187.166 82.886 187.139 83.0349 187.112 83.1973C187.099 83.2785 187.085 83.3597 187.099 83.4273C187.108 83.4995 187.141 83.5716 187.174 83.6438L187.185 83.6691L187.192 83.6836L187.199 83.7L187.206 83.7171L187.212 83.7315L187.214 83.7367L187.22 83.7521C187.261 83.8603 187.261 83.9821 187.153 84.0633C186.855 83.698 186.652 83.3191 186.476 82.9266C186.476 82.7578 186.575 82.6072 186.723 82.4787ZM182.154 83.342L181.903 83.8128C182.063 83.7674 182.184 83.6917 182.213 83.5626C182.229 83.4858 182.205 83.4089 182.154 83.342ZM181.306 84.9302L181.212 85.1053C181.55 85.2388 181.896 85.3603 182.247 85.4696C181.988 85.2506 181.665 85.0682 181.306 84.9302ZM187.614 89.349L187.615 89.3465L187.618 89.3432L187.623 89.3414L187.625 89.3409C187.835 89.1979 188.11 89.1123 188.387 89.0258L188.391 89.0247C188.558 88.9725 188.727 88.9197 188.885 88.8537C189.291 88.6778 189.643 88.3124 189.399 88.0282C188.519 88.0012 187.667 88.5154 187.586 89.1379C187.625 89.204 187.626 89.2702 187.614 89.349ZM167.775 56.9586C168.045 56.7827 168.37 56.5797 168.708 56.6338C168.776 56.6474 168.844 56.6609 168.884 56.7015C168.925 56.7421 168.938 56.8098 168.884 56.8504C168.871 56.8639 168.844 56.8774 168.817 56.891C168.729 56.9248 168.637 56.9586 168.546 56.9925L168.429 57.036L168.405 57.045L168.336 57.0707L168.275 57.0939C168.194 57.121 168.113 57.1616 168.072 57.2293L168.069 57.2409L168.066 57.2522L168.063 57.2658L168.06 57.2838L168.059 57.2886C168.055 57.3071 168.052 57.324 168.045 57.3375C168.005 57.4458 167.856 57.4999 167.721 57.5405C167.247 57.6758 166.773 57.7976 166.286 57.8923C166.449 57.7435 166.665 57.6352 166.895 57.5946C167.01 57.5202 167.172 57.3986 167.335 57.2769L167.336 57.2755C167.498 57.1543 167.66 57.0327 167.775 56.9586ZM167.03 48.5823C167.036 48.577 167.043 48.5738 167.051 48.5718L167.056 48.5707L167.061 48.57L167.067 48.5692L167.073 48.5689L167.079 48.5688L167.085 48.5687C167.112 48.5687 167.139 48.5958 167.152 48.6093C167.355 48.88 167.504 49.1777 167.612 49.4889C167.207 49.3058 166.713 49.1607 166.265 49.029L166.219 49.0153C166.489 48.8665 166.76 48.7175 167.03 48.5823ZM164.378 56.8639C164.392 56.8504 164.405 56.8504 164.432 56.8504C164.453 56.8504 164.466 56.8662 164.477 56.8796L164.481 56.8844L164.484 56.8884L164.486 56.891C164.662 57.1345 164.798 57.4052 164.892 57.6758C164.527 57.5134 164.053 57.3646 163.647 57.2563C163.768 57.1893 163.889 57.1256 164.009 57.062L164.013 57.0601L164.085 57.0219L164.133 56.9965L164.204 56.9588L164.287 56.914L164.378 56.8639ZM161.496 70.1794C161.672 70.0983 161.875 70.0171 162.064 69.9629C162.254 69.9088 162.524 69.8682 162.619 70.0171C162.687 70.1253 162.592 70.2606 162.47 70.3283C162.383 70.3766 162.276 70.4042 162.172 70.4308L162.123 70.4434L162.104 70.4486L162.077 70.4561L162.051 70.4636C161.807 70.5583 161.631 70.7478 161.536 70.9643C161.459 71.1308 161.427 71.3154 161.395 71.4958L161.384 71.5572L161.381 71.5762L161.374 71.6138C161.361 71.7221 161.347 71.8439 161.361 71.9521C161.377 72.0414 161.408 72.1307 161.438 72.22C161.459 72.2795 161.48 72.3392 161.496 72.3987C161.536 72.5476 161.536 72.7235 161.415 72.8453C161.049 72.331 160.792 71.7898 160.576 71.2214C160.589 70.7749 161.022 70.3959 161.496 70.1794ZM158.871 84.6046C158.735 84.5911 158.6 84.4964 158.614 84.3746C158.626 84.2886 158.716 84.2249 158.804 84.1633L158.83 84.1445L158.84 84.1379L158.844 84.1349L158.865 84.1223C158.877 84.1149 158.891 84.1068 158.907 84.0981L158.958 84.0698L158.961 84.0682L158.965 84.066C159.121 83.9803 159.337 83.8615 159.317 83.7927C159.452 83.725 159.601 83.6574 159.764 83.6168C159.94 83.5762 160.129 83.5491 160.291 83.5897C160.467 83.6303 160.603 83.7656 160.589 83.9145C160.562 84.1039 160.305 84.2122 160.088 84.2798L159.277 84.5234C159.141 84.5776 159.006 84.6181 158.871 84.6046ZM161.225 93.8335C160.67 93.847 160.21 93.184 159.926 92.4667C159.829 92.2232 159.753 91.9577 159.68 91.6999L159.655 91.6142C159.574 91.3301 159.547 90.9241 159.723 90.7888C159.858 90.694 160.021 90.8294 160.102 91.0188C160.149 91.1278 160.178 91.2502 160.206 91.3731C160.228 91.4638 160.249 91.5552 160.278 91.6413C160.4 92.0066 160.63 92.2638 160.887 92.4126C161.116 92.5453 161.356 92.5919 161.597 92.6388L161.685 92.6562C161.821 92.6833 161.969 92.6968 162.105 92.6833C162.223 92.6663 162.336 92.6124 162.451 92.5578L162.501 92.5339L162.516 92.5272L162.527 92.522L162.547 92.5128L162.561 92.5065L162.584 92.4964L162.602 92.4891L162.622 92.481L162.632 92.477L162.647 92.4715L162.66 92.4667C162.849 92.3991 163.066 92.3991 163.214 92.5885C162.592 93.1298 161.929 93.5087 161.225 93.8335ZM162.957 79.8796C162.604 80.0087 162.254 80.1369 161.983 80.3555L161.969 80.3691C161.997 80.2608 161.983 80.1526 161.942 80.0578C162.051 79.1783 163.079 78.4475 164.175 78.4746C164.459 78.8806 164.04 79.4083 163.526 79.6519C163.344 79.738 163.15 79.809 162.957 79.8796ZM161.969 80.3691C161.915 80.6397 161.672 80.9239 161.388 81.0728C161.423 81.024 161.457 80.9748 161.491 80.9255C161.627 80.7285 161.764 80.5315 161.969 80.3691ZM161.377 81.0858L161.361 81.1096C161.355 81.1192 161.348 81.1291 161.341 81.1391L161.328 81.1577C161.315 81.1754 161.303 81.1927 161.293 81.2081C161.063 81.4922 160.738 81.7629 160.305 81.79C160.466 81.5215 160.798 81.3638 161.124 81.2087C161.208 81.1684 161.293 81.1281 161.374 81.0863L161.377 81.0858ZM165.122 66.8641C165.027 66.7249 165.032 66.5634 165.037 66.4011C165.039 66.3111 165.042 66.2202 165.028 66.1333C164.987 65.8627 164.798 65.6191 164.595 65.3891C164.486 65.2673 164.378 65.1455 164.229 65.0508C164.08 64.9561 163.891 64.8884 163.715 64.9155C163.945 64.8207 164.202 64.7531 164.459 64.726L164.476 64.7256L164.492 64.7248L164.515 64.7232C164.556 64.7201 164.599 64.7169 164.635 64.726C164.703 64.7396 164.757 64.7802 164.798 64.8207C164.919 64.9155 165.028 65.0237 165.109 65.1455C165.204 65.4703 165.393 65.7815 165.664 66.0251L165.693 66.0494L165.707 66.0607L165.738 66.0858C165.811 66.1429 165.881 66.1983 165.921 66.2687C165.961 66.3363 165.975 66.4311 165.975 66.5123C165.988 66.6611 165.961 66.8506 165.785 66.9182C165.745 66.9317 165.701 66.9351 165.657 66.9385C165.613 66.9419 165.569 66.9453 165.528 66.9588L165.513 66.963L165.496 66.9681L165.479 66.9736C165.441 66.9861 165.4 66.9994 165.352 66.9994C165.271 66.9994 165.177 66.9317 165.122 66.8641ZM168.24 82.3009C168.17 82.3107 168.1 82.3205 168.032 82.3312C167.572 82.426 167.26 82.6154 167.071 82.8319C166.895 83.0349 166.827 83.2649 166.773 83.4815C166.746 83.5897 166.719 83.7115 166.746 83.8198C166.769 83.9048 166.828 83.9898 166.886 84.0748C166.93 84.1384 166.974 84.2026 167.003 84.2663C167.085 84.4152 167.085 84.5911 166.855 84.7129C166.178 84.1986 165.704 83.6574 165.298 83.089C165.285 82.6425 166.097 82.2636 166.99 82.0335C167.328 81.9523 167.694 81.8711 168.045 81.817C168.397 81.7629 168.898 81.7223 169.074 81.8711C169.209 81.9929 169.033 82.1283 168.803 82.1959C168.634 82.2456 168.435 82.2735 168.24 82.3009ZM167.788 61.8166C167.65 61.6831 167.531 61.535 167.413 61.3871C167.207 61.1303 167.001 60.8737 166.692 60.6935C166.827 60.6935 166.949 60.6664 167.071 60.6258C168.154 60.5717 169.223 61.2889 169.358 62.1549C168.871 62.4391 168.167 62.182 167.788 61.8166ZM166.692 60.6935L166.69 60.6932L166.686 60.6922L166.68 60.6866L166.692 60.6935ZM165.982 60.417C166.221 60.4911 166.459 60.5647 166.668 60.6799C166.327 60.677 165.963 60.5359 165.747 60.3423L165.776 60.3517L165.833 60.3705L165.884 60.3865L165.982 60.417ZM165.745 60.3405C165.745 60.3349 165.739 60.3302 165.739 60.3302L165.734 60.3284L165.731 60.3281C165.668 60.2701 165.605 60.2083 165.543 60.1472C165.302 59.9097 165.058 59.6699 164.703 59.5838C164.784 59.9086 165.163 60.1386 165.555 60.274C165.582 60.2807 165.613 60.2909 165.643 60.301L165.686 60.3151L165.695 60.3179L165.712 60.3228L165.722 60.3256L165.731 60.3281L165.745 60.3405ZM193.12 72.6558C192.836 72.6287 192.565 72.7641 192.349 72.8859C192.216 72.9616 192.011 73.0971 191.834 73.2134L191.73 73.2823L191.632 73.3459C191.442 73.373 191.253 73.4407 191.131 73.5489C191.537 73.4813 191.929 73.4001 192.308 73.3053C192.417 73.2783 192.538 73.2377 192.565 73.1565C192.567 73.1525 192.569 73.1485 192.571 73.1445L192.574 73.1339L192.579 73.1159L192.582 73.1048L192.584 73.0974L192.585 73.0936C192.587 73.0875 192.589 73.0814 192.592 73.0753C192.614 73.0318 192.662 73.0145 192.715 72.9954L192.719 72.9939L192.735 72.9883L192.745 72.9845L192.755 72.9806C192.829 72.9604 192.903 72.9368 192.977 72.9132L192.979 72.9126C193.053 72.8892 193.128 72.8653 193.201 72.8453L193.205 72.842C193.209 72.8396 193.212 72.8378 193.216 72.8361L193.22 72.8345L193.229 72.8317L193.234 72.8297L193.239 72.8281L193.242 72.8267L193.247 72.8242L193.251 72.8217L193.253 72.8201L193.256 72.8182C193.296 72.7911 193.296 72.737 193.256 72.7099C193.229 72.6829 193.174 72.6558 193.12 72.6558ZM191.744 66.9854L191.74 66.9859L191.654 67.0267L191.573 67.0653C191.403 67.1464 191.237 67.2256 191.063 67.2971C191.429 67.3783 191.862 67.4866 192.2 67.6219C192.119 67.4054 191.997 67.1889 191.835 66.9994C191.821 66.9859 191.808 66.9723 191.781 66.9723L191.771 66.9743L191.767 66.9761L191.76 66.9791L191.755 66.9815L191.75 66.9837L191.744 66.9854ZM189.605 72.8069L189.6 72.809L189.595 72.8114C189.591 72.8133 189.588 72.8152 189.584 72.8165L189.575 72.8182C189.372 72.9126 189.168 73.0079 188.979 73.0888L189.04 73.104C189.352 73.1818 189.715 73.2723 189.994 73.3865C189.927 73.1971 189.818 73.0076 189.67 72.8317C189.656 72.8182 189.643 72.8047 189.615 72.8047L189.605 72.8069ZM184.866 92.169C184.852 92.2502 184.974 92.3179 185.082 92.3314C185.19 92.3449 185.312 92.3179 185.407 92.2908C185.536 92.2605 185.661 92.2259 185.784 92.1917L185.887 92.1631L185.939 92.1491L185.98 92.138C186.01 92.1301 186.04 92.1224 186.07 92.1149C186.246 92.0608 186.463 91.9931 186.476 91.8578C186.49 91.7496 186.368 91.6548 186.232 91.6278C186.097 91.5872 185.935 91.6142 185.799 91.6413C185.664 91.6683 185.542 91.709 185.434 91.7631C185.456 91.8185 185.233 91.9194 185.107 91.9763C185.08 91.9888 185.056 91.9994 185.042 92.0066L185.033 92.0117C184.966 92.0517 184.879 92.1042 184.866 92.169ZM190.109 79.5194C190.106 79.6386 190.103 79.7557 190.184 79.8549C190.224 79.909 190.306 79.9496 190.4 79.9361C190.441 79.9361 190.495 79.9225 190.536 79.909C190.569 79.9022 190.603 79.8989 190.637 79.8955L190.656 79.8936L190.676 79.8914L190.688 79.8899L190.7 79.8883L190.724 79.8847L190.739 79.8819C190.874 79.8413 190.887 79.706 190.887 79.5978C190.887 79.5301 190.887 79.476 190.847 79.4218C190.82 79.3767 190.769 79.3437 190.718 79.3106C190.692 79.2941 190.666 79.2774 190.644 79.2594C190.414 79.0835 190.251 78.867 190.184 78.637C190.116 78.5558 190.021 78.4746 189.927 78.4069C189.886 78.3799 189.845 78.3528 189.791 78.3393L189.783 78.3373L189.777 78.3363L189.772 78.3355L189.765 78.3346L189.755 78.3336L189.74 78.3332L189.73 78.3334L189.719 78.334L189.709 78.3348L189.695 78.3361L189.683 78.3372L189.675 78.3379L189.664 78.3386L189.655 78.339L189.643 78.3393C189.426 78.3663 189.223 78.4069 189.034 78.4746C189.182 78.4611 189.331 78.5017 189.453 78.5693C189.575 78.637 189.67 78.7317 189.751 78.8129C189.913 78.9753 190.076 79.1512 190.103 79.3406C190.107 79.3686 190.109 79.3969 190.109 79.4254C190.11 79.4565 190.109 79.4883 190.109 79.5194ZM192.664 90.7217C192.84 90.6987 193.029 90.6741 193.188 90.6399C193.377 90.5858 193.513 90.5046 193.418 90.4234C193.283 90.3151 192.863 90.3422 192.579 90.3828C192.281 90.4234 191.984 90.4775 191.713 90.5317C190.982 90.694 190.319 90.9647 190.333 91.2759C190.657 91.6684 191.05 92.0472 191.605 92.4126C191.794 92.3314 191.794 92.2096 191.726 92.1014L191.713 92.0805L191.705 92.0689C191.685 92.0406 191.662 92.0122 191.639 91.9839C191.583 91.915 191.527 91.8455 191.51 91.7766C191.496 91.7089 191.51 91.6278 191.537 91.5466L191.549 91.5092C191.598 91.3612 191.643 91.2238 191.781 91.0865C191.929 90.9376 192.187 90.8023 192.565 90.7346L192.612 90.7285L192.664 90.7217ZM192.054 75.9921C192.151 76.0967 192.249 76.2018 192.362 76.2959C192.674 76.553 193.242 76.7425 193.621 76.553C193.513 75.9306 192.66 75.4299 191.767 75.4705C191.684 75.5061 191.59 75.5209 191.495 75.524C191.73 75.6438 191.891 75.8174 192.054 75.9921ZM190.713 75.288C190.962 75.3505 191.21 75.4141 191.425 75.5107C191.164 75.5038 190.885 75.4089 190.713 75.288ZM190.664 75.2623C190.614 75.222 190.564 75.1802 190.515 75.1384C190.318 74.9709 190.122 74.8042 189.832 74.7397C189.913 74.9698 190.224 75.1322 190.536 75.2269C190.55 75.2306 190.564 75.2343 190.578 75.238L190.609 75.247L190.622 75.2505L190.639 75.2555L190.664 75.2623ZM144.933 73.5354C144.797 73.4407 144.621 73.3595 144.432 73.3324C144.299 73.2566 144.094 73.1212 143.917 73.005L143.862 72.9685L143.795 72.9247L143.744 72.8913L143.715 72.8723C143.485 72.737 143.228 72.6017 142.943 72.6423C142.889 72.6558 142.849 72.6693 142.808 72.6964C142.781 72.737 142.767 72.7776 142.808 72.8047C142.822 72.8182 142.835 72.8317 142.862 72.8317C142.937 72.852 143.011 72.8757 143.086 72.8994C143.16 72.9231 143.234 72.9468 143.309 72.967C143.376 72.9941 143.444 73.0212 143.471 73.0618C143.481 73.0719 143.486 73.082 143.488 73.0921L143.489 73.0994L143.49 73.1053L143.491 73.1106C143.491 73.1168 143.492 73.1231 143.493 73.1294C143.494 73.1339 143.496 73.1384 143.498 73.143C143.525 73.2242 143.647 73.2647 143.755 73.2918C144.148 73.3865 144.54 73.4677 144.933 73.5354ZM143.85 67.6219C144.188 67.5001 144.621 67.3783 144.987 67.2971C144.875 67.2483 144.763 67.1958 144.648 67.1416L144.496 67.0705C144.436 67.0425 144.374 67.0142 144.31 66.9859L144.307 66.9827L144.302 66.9791L144.298 66.9771L144.291 66.9745L144.289 66.9739L144.285 66.9731L144.282 66.9727C144.278 66.9723 144.274 66.9723 144.27 66.9723C144.242 66.9723 144.229 66.9859 144.215 66.9994C144.053 67.1889 143.931 67.4054 143.85 67.6219ZM147.084 73.1024C146.895 73.0076 146.692 72.9129 146.489 72.8317C146.475 72.8182 146.462 72.8182 146.448 72.8182C146.421 72.8182 146.408 72.8317 146.394 72.8453C146.259 73.0212 146.137 73.2106 146.069 73.4001C146.348 73.2859 146.711 73.1955 147.023 73.1177L147.084 73.1024ZM148.897 84.0633C149.182 83.7115 149.398 83.3191 149.574 82.9266C149.588 82.6019 149.222 82.3448 148.83 82.1824C148.681 82.1283 148.532 82.0741 148.37 82.0335C148.221 81.9929 147.991 81.9659 147.923 82.0741C147.869 82.1553 147.937 82.25 148.045 82.2906C148.099 82.3109 148.157 82.3245 148.214 82.338C148.271 82.3515 148.329 82.3651 148.383 82.3854C148.586 82.453 148.722 82.5883 148.803 82.7372C148.881 82.8799 148.909 83.035 148.935 83.1788L148.938 83.1973C148.952 83.2649 148.965 83.3461 148.952 83.4273C148.937 83.4919 148.912 83.5488 148.886 83.6042C148.864 83.6531 148.842 83.7014 148.83 83.7521C148.803 83.8603 148.803 83.9821 148.897 84.0633ZM150.357 92.214C150.453 92.2407 150.548 92.2671 150.643 92.2908C150.751 92.3179 150.873 92.3449 150.968 92.3314C151.09 92.3179 151.198 92.2502 151.184 92.169C151.184 92.1014 151.09 92.0473 151.008 92.0066L150.985 91.9957L150.945 91.9774L150.943 91.9764C150.817 91.9194 150.594 91.8185 150.616 91.7631C150.494 91.709 150.372 91.6683 150.251 91.6413C150.115 91.6142 149.953 91.6007 149.818 91.6278C149.682 91.6548 149.561 91.7496 149.574 91.8578C149.588 91.9931 149.804 92.0608 149.98 92.1149C150.108 92.1451 150.235 92.1801 150.357 92.214ZM148.464 89.1243C148.383 88.5154 147.544 88.0012 146.651 88.0147C146.421 88.3124 146.773 88.6778 147.165 88.8402C147.305 88.8942 147.454 88.9393 147.602 88.9843C147.9 89.0745 148.198 89.1649 148.424 89.3273L148.424 89.3294L148.424 89.3318L148.426 89.335L148.427 89.3367L148.43 89.3387L148.432 89.3397L148.435 89.3405L148.437 89.3408C148.492 89.5438 148.681 89.7333 148.911 89.8415L148.915 89.8459L148.921 89.8516L148.928 89.8602L148.932 89.8646L148.946 89.8816L148.951 89.8884L148.973 89.9148L148.985 89.9285L148.992 89.9363C149.168 90.1392 149.452 90.3287 149.791 90.3422C149.652 90.1338 149.354 90.0146 149.068 89.8997L149.02 89.8805L148.964 89.8579L148.925 89.8415H148.911C148.876 89.8005 148.843 89.7589 148.81 89.7173C148.701 89.5805 148.593 89.4445 148.437 89.3408C148.424 89.2732 148.424 89.192 148.464 89.1243ZM145.599 79.9346C145.623 79.9418 145.648 79.9496 145.677 79.9496C145.758 79.9496 145.839 79.909 145.893 79.8684C145.983 79.7693 145.978 79.6522 145.972 79.533C145.969 79.4733 145.966 79.4129 145.975 79.3542C146.002 79.1512 146.164 78.9888 146.326 78.8265C146.421 78.7318 146.516 78.6505 146.624 78.5828C146.732 78.5152 146.895 78.4746 147.044 78.4881C146.854 78.4205 146.638 78.3799 146.435 78.3528L146.423 78.3526C146.408 78.3522 146.394 78.3509 146.38 78.3497C146.345 78.3467 146.312 78.3439 146.286 78.3528C146.232 78.3663 146.191 78.3934 146.15 78.4205C146.056 78.4881 145.961 78.5693 145.893 78.6505C145.812 78.8805 145.663 79.1106 145.433 79.273C145.411 79.291 145.385 79.3076 145.36 79.3241C145.308 79.3572 145.257 79.3903 145.23 79.4354C145.203 79.4895 145.19 79.5572 145.19 79.6113C145.176 79.7195 145.19 79.8549 145.339 79.8954C145.371 79.9117 145.413 79.9133 145.457 79.915C145.485 79.916 145.515 79.9171 145.542 79.9225C145.56 79.9225 145.579 79.9284 145.599 79.9346ZM143.485 90.3828C143.187 90.3422 142.781 90.3151 142.646 90.4234C142.551 90.5046 142.686 90.5858 142.876 90.6399C142.973 90.6608 143.081 90.6745 143.19 90.6884L143.247 90.6956C143.332 90.7066 143.417 90.7185 143.498 90.7346C143.877 90.8023 144.134 90.9376 144.283 91.0865C144.432 91.2353 144.486 91.3977 144.527 91.5466C144.554 91.6142 144.581 91.6954 144.554 91.7766C144.536 91.8548 144.48 91.9218 144.424 91.9884C144.393 92.0256 144.361 92.0626 144.337 92.1014C144.283 92.2096 144.283 92.3314 144.459 92.4126C145.014 92.0608 145.406 91.6684 145.731 91.2759C145.745 90.9512 145.081 90.694 144.351 90.5317C144.08 90.4775 143.782 90.4234 143.485 90.3828ZM144.297 75.457C143.417 75.4299 142.551 75.9306 142.443 76.5395C142.822 76.7425 143.39 76.553 143.701 76.2824C143.816 76.1876 143.914 76.0836 144.012 75.9799C144.174 75.8083 144.335 75.6375 144.57 75.5105C144.474 75.5075 144.38 75.4928 144.297 75.457ZM144.635 75.4972C144.884 75.4907 145.163 75.3964 145.347 75.2758L145.297 75.2885L145.223 75.3071C145.021 75.3569 144.813 75.4084 144.635 75.4972ZM145.45 75.2346L145.474 75.2279L145.491 75.2233L145.528 75.2134C145.853 75.1186 146.164 74.9562 146.232 74.7262C145.942 74.7906 145.745 74.9574 145.548 75.125C145.499 75.1667 145.45 75.2085 145.399 75.2488C145.417 75.2441 145.434 75.2393 145.45 75.2346Z" fill="white"/>
<path d="M168.032 115.011C193.756 115.011 214.609 114.72 214.609 114.362C214.609 114.003 193.756 113.712 168.032 113.712C142.308 113.712 121.454 114.003 121.454 114.362C121.454 114.72 142.308 115.011 168.032 115.011Z" fill="white"/>
<path d="M168.032 117.46C188.106 117.46 204.379 117.267 204.379 117.027C204.379 116.788 188.106 116.594 168.032 116.594C147.958 116.594 131.685 116.788 131.685 117.027C131.685 117.267 147.958 117.46 168.032 117.46Z" fill="white"/>
<path d="M236.637 129.914H232.914C232.584 129.928 232.307 130.046 232.083 130.271C231.858 130.495 231.746 130.772 231.746 131.102V131.439L231.548 131.459V128.964C231.68 129.017 231.878 129.07 232.142 129.122C232.419 129.175 232.723 129.221 233.053 129.261C233.383 129.301 233.687 129.32 233.964 129.32H240.597C240.887 129.32 241.191 129.301 241.508 129.261C241.838 129.221 242.141 129.175 242.418 129.122C242.696 129.07 242.894 129.017 243.012 128.964V131.459L242.814 131.439V131.102C242.814 130.772 242.696 130.495 242.458 130.271C242.234 130.046 241.963 129.928 241.646 129.914H237.924V141.755C237.937 142.098 238.062 142.395 238.3 142.646C238.551 142.883 238.848 143.002 239.191 143.002H239.448V143.2H235.112V143.002H235.37C235.713 143.002 236.003 142.883 236.241 142.646C236.492 142.395 236.624 142.098 236.637 141.755V129.914Z" fill="white"/>
<path d="M223.724 129.954V136.072H227.071C227.335 136.059 227.559 135.96 227.744 135.775C227.929 135.577 228.021 135.346 228.021 135.082V134.805H228.219V137.933H228.021V137.636C228.021 137.372 227.929 137.148 227.744 136.963C227.559 136.765 227.335 136.666 227.071 136.666H223.724V142.586H226.556C227.255 142.586 227.823 142.481 228.259 142.27C228.707 142.045 229.07 141.735 229.348 141.339C229.625 140.943 229.869 140.494 230.08 139.993H230.278L229.13 143.2H220.913V143.002H221.17C221.513 143.002 221.804 142.883 222.041 142.646C222.292 142.395 222.424 142.098 222.437 141.755V130.786C222.437 130.442 222.312 130.152 222.061 129.914C221.81 129.664 221.513 129.538 221.17 129.538H220.933L220.913 129.34H226.655C226.945 129.34 227.249 129.32 227.566 129.281C227.896 129.241 228.199 129.195 228.476 129.142C228.754 129.089 228.952 129.037 229.07 128.984V131.479H228.872V131.122C228.872 130.805 228.76 130.535 228.536 130.31C228.354 130.118 228.138 129.999 227.887 129.954H223.724Z" fill="white"/>
<path d="M211.345 136.31L216.034 130.427C216.191 130.211 216.212 130.007 216.097 129.815C215.991 129.617 215.806 129.518 215.542 129.518H215.344V129.34H219.522V129.518H219.443C219.007 129.518 218.598 129.604 218.215 129.776C217.925 129.911 217.668 130.086 217.443 130.302L212.65 135.832L218.057 142.19C218.334 142.454 218.611 142.652 218.889 142.784C219.179 142.916 219.529 142.989 219.938 143.002V143.2H219.087C218.955 143.2 218.763 143.194 218.512 143.18C218.275 143.154 218.011 143.108 217.72 143.042C217.443 142.963 217.159 142.85 216.869 142.705C216.592 142.547 216.341 142.336 216.117 142.072L215.76 141.656C215.536 141.379 215.239 141.022 214.869 140.587C214.513 140.151 214.13 139.689 213.721 139.201C213.325 138.699 212.942 138.23 212.572 137.795C212.216 137.359 211.919 137.003 211.681 136.726L211.345 136.31Z" fill="white"/>
<path d="M210.711 141.755V130.786C210.724 130.442 210.85 130.152 211.087 129.914C211.338 129.664 211.635 129.538 211.978 129.538H212.236V129.34H207.9V129.538H208.157C208.5 129.538 208.791 129.664 209.028 129.914C209.279 130.152 209.411 130.442 209.424 130.786V141.755C209.411 142.098 209.279 142.395 209.028 142.646C208.791 142.883 208.5 143.002 208.157 143.002H207.9V143.2H212.236V143.002H211.978C211.635 143.002 211.338 142.883 211.087 142.646C210.85 142.395 210.724 142.098 210.711 141.755Z" fill="white"/>
<path d="M205.726 137.419L205.489 140.527C205.145 141.095 204.71 141.603 204.182 142.052C203.667 142.487 203.053 142.837 202.34 143.101C201.641 143.352 200.836 143.477 199.925 143.477C198.552 143.464 197.331 143.161 196.262 142.567C195.193 141.973 194.354 141.141 193.747 140.072C193.153 138.989 192.856 137.716 192.856 136.25C192.856 134.812 193.153 133.558 193.747 132.488C194.341 131.406 195.173 130.568 196.242 129.974C197.324 129.367 198.592 129.063 200.044 129.063C201.02 129.063 201.898 129.195 202.677 129.459C203.469 129.71 204.155 130.027 204.736 130.409L205.132 133.201H204.954C204.664 132.04 204.07 131.162 203.172 130.568C202.274 129.961 201.232 129.657 200.044 129.657C198.882 129.657 197.872 129.934 197.014 130.489C196.169 131.03 195.509 131.795 195.034 132.785C194.572 133.762 194.341 134.911 194.341 136.231C194.341 137.551 194.572 138.706 195.034 139.696C195.509 140.686 196.163 141.458 196.994 142.012C197.839 142.567 198.816 142.857 199.925 142.883C200.862 142.883 201.727 142.712 202.519 142.369C203.324 142.012 203.997 141.438 204.538 140.646C205.079 139.841 205.423 138.765 205.568 137.419H205.726Z" fill="white"/>
<path d="M180.055 138.052V130.528C180.055 130.238 180.154 130 180.352 129.815C180.564 129.631 180.814 129.538 181.105 129.538H181.422V129.34H177.402V129.538H177.719C178.009 129.538 178.254 129.631 178.452 129.815C178.663 130 178.768 130.238 178.768 130.528V138.329C178.768 139.359 178.993 140.263 179.442 141.042C179.904 141.808 180.544 142.408 181.362 142.844C182.194 143.266 183.157 143.477 184.253 143.477C185.322 143.477 186.259 143.26 187.065 142.824C187.87 142.388 188.49 141.788 188.926 141.022C189.375 140.243 189.599 139.339 189.599 138.31V130.528C189.599 130.238 189.698 130 189.896 129.815C190.107 129.631 190.358 129.538 190.648 129.538H190.965V129.34H187.302V129.538H187.619C187.909 129.538 188.154 129.631 188.352 129.815C188.563 130 188.668 130.238 188.668 130.528V138.31C188.668 139.22 188.484 140.019 188.114 140.705C187.744 141.379 187.23 141.907 186.57 142.289C185.91 142.672 185.137 142.864 184.253 142.864C183.421 142.864 182.689 142.666 182.055 142.27C181.422 141.86 180.927 141.293 180.57 140.567C180.227 139.841 180.055 139.003 180.055 138.052Z" fill="white"/>
<path fill-rule="evenodd" clip-rule="evenodd" d="M169.939 129.34C170.863 129.34 171.642 129.479 172.275 129.756C172.922 130.033 173.41 130.423 173.74 130.924C174.07 131.413 174.235 131.987 174.235 132.647C174.235 133.201 174.13 133.69 173.919 134.112C173.707 134.521 173.437 134.858 173.107 135.122C172.777 135.373 172.427 135.551 172.057 135.656C172.757 135.762 173.358 135.993 173.859 136.349C174.374 136.706 174.763 137.155 175.027 137.696C175.305 138.224 175.443 138.818 175.443 139.478C175.443 140.217 175.265 140.87 174.909 141.438C174.552 141.992 174.024 142.428 173.325 142.745C172.638 143.048 171.807 143.2 170.83 143.2H165.999L166.018 143.002H166.256C166.599 143.002 166.896 142.883 167.147 142.646C167.398 142.395 167.523 142.098 167.523 141.755V130.786C167.523 130.442 167.398 130.152 167.147 129.914C166.896 129.664 166.599 129.538 166.256 129.538H166.018L165.999 129.34H169.939ZM170.751 142.487H168.81V129.974H169.86C170.493 129.974 171.021 130.086 171.444 130.31C171.879 130.522 172.203 130.838 172.414 131.261C172.638 131.683 172.75 132.191 172.75 132.785C172.75 133.419 172.638 133.934 172.414 134.33C172.189 134.713 171.906 135.003 171.562 135.201C171.219 135.399 170.863 135.531 170.493 135.597C170.124 135.663 169.787 135.696 169.483 135.696V135.874C169.959 135.874 170.454 135.92 170.968 136.013C171.496 136.092 171.985 136.25 172.434 136.488C172.882 136.726 173.245 137.075 173.523 137.537C173.813 137.999 173.958 138.6 173.958 139.339C173.958 139.999 173.833 140.567 173.582 141.042C173.331 141.517 172.968 141.88 172.493 142.131C172.018 142.369 171.437 142.487 170.751 142.487Z" fill="white"/>
<path d="M152.995 129.34H147.649V129.538H147.906C148.249 129.538 148.54 129.664 148.777 129.914C149.028 130.152 149.16 130.442 149.173 130.786V141.755C149.16 142.098 149.028 142.395 148.777 142.646C148.54 142.883 148.249 143.002 147.906 143.002H147.649V143.2H151.965V143.002H151.728C151.384 143.002 151.087 142.883 150.837 142.646C150.586 142.395 150.46 142.098 150.46 141.755V129.954H151.767C152.163 129.941 152.546 129.947 152.916 129.974C153.655 130.013 154.242 130.304 154.678 130.845C155.127 131.373 155.358 132.086 155.371 132.983C155.384 133.195 155.377 133.412 155.351 133.637C155.325 133.848 155.292 134.026 155.252 134.171C155.067 134.765 154.797 135.208 154.44 135.498C154.084 135.788 153.701 135.98 153.292 136.072C152.883 136.165 152.506 136.217 152.163 136.231C151.873 136.244 151.622 136.25 151.411 136.25L151.114 136.231V136.429C151.47 136.429 151.8 136.567 152.104 136.844C152.407 137.122 152.685 137.425 152.935 137.755C152.952 137.78 152.998 137.848 153.073 137.957L153.232 138.191C153.404 138.428 153.609 138.719 153.846 139.062C154.084 139.405 154.321 139.755 154.559 140.111C154.81 140.455 155.021 140.752 155.193 141.002C155.377 141.253 155.49 141.405 155.529 141.458C155.74 141.709 155.998 141.973 156.301 142.25C156.605 142.514 156.975 142.738 157.41 142.923C157.859 143.108 158.387 143.2 158.994 143.2H160.083V143.002C159.7 143.002 159.351 142.936 159.034 142.804C158.73 142.672 158.446 142.494 158.182 142.27C157.918 142.045 157.654 141.788 157.39 141.497C157.192 141.286 156.955 141.002 156.678 140.646C156.4 140.29 156.123 139.927 155.846 139.557C155.582 139.187 155.358 138.877 155.173 138.626L154.915 138.23C154.717 137.966 154.486 137.696 154.222 137.419C153.958 137.128 153.714 136.937 153.49 136.844C154.123 136.844 154.691 136.666 155.193 136.31C155.707 135.94 156.11 135.465 156.4 134.884C156.704 134.303 156.856 133.696 156.856 133.063C156.856 132.482 156.763 131.967 156.579 131.518C156.407 131.056 156.156 130.667 155.826 130.35C155.496 130.02 155.087 129.769 154.599 129.598C154.123 129.426 153.589 129.34 152.995 129.34Z" fill="white"/>
<path fill-rule="evenodd" clip-rule="evenodd" d="M139.473 129.063L144.779 141.755C144.977 142.204 145.242 142.527 145.572 142.725C145.902 142.91 146.218 143.002 146.522 143.002H146.68V143.2H142.225V143.002H142.404C142.654 143.002 142.879 142.897 143.077 142.685C143.256 142.482 143.295 142.209 143.193 141.865L141.883 138.389H136.542L135.183 141.861C135.122 142.08 135.12 142.269 135.177 142.428C135.243 142.613 135.348 142.758 135.493 142.864C135.652 142.956 135.81 143.002 135.969 143.002H136.147V143.2H132.167V143.002H132.345C132.649 143.002 132.959 142.91 133.276 142.725C133.572 142.547 133.82 142.269 134.02 141.889L138.562 131.102L138.661 130.865C138.741 130.693 138.826 130.489 138.919 130.251C139.024 130.013 139.11 129.782 139.176 129.558C139.255 129.334 139.295 129.169 139.295 129.063H139.473ZM139.264 131.439L141.659 137.795H136.775L139.264 131.439Z" fill="white"/>
<path fill-rule="evenodd" clip-rule="evenodd" d="M128.692 130.211C127.636 129.631 126.402 129.34 124.99 129.34H118.278L118.297 129.538H118.535C118.878 129.538 119.175 129.664 119.426 129.914C119.677 130.152 119.802 130.442 119.802 130.786V141.755C119.789 142.098 119.657 142.395 119.406 142.646C119.169 142.883 118.878 143.002 118.535 143.002H118.278V143.2H124.99C126.402 143.2 127.636 142.91 128.692 142.329C129.762 141.748 130.593 140.943 131.187 139.913C131.794 138.871 132.098 137.656 132.098 136.27C132.098 134.884 131.794 133.67 131.187 132.627C130.593 131.584 129.762 130.779 128.692 130.211ZM121.089 142.606H124.99C126.125 142.606 127.108 142.342 127.94 141.814C128.785 141.286 129.438 140.547 129.9 139.597C130.375 138.646 130.613 137.537 130.613 136.27C130.613 135.003 130.375 133.894 129.9 132.944C129.438 131.993 128.785 131.254 127.94 130.726C127.095 130.198 126.112 129.934 124.99 129.934H121.089V142.606Z" fill="white"/>
<path d="M109.855 129.954V136.072H113.201C113.465 136.059 113.69 135.96 113.874 135.775C114.059 135.577 114.152 135.346 114.152 135.082V134.805H114.35V137.933H114.152V137.636C114.152 137.372 114.059 137.148 113.874 136.963C113.69 136.765 113.465 136.666 113.201 136.666H109.855V142.586H112.686C113.386 142.586 113.954 142.481 114.389 142.27C114.838 142.045 115.201 141.735 115.478 141.339C115.755 140.943 116 140.494 116.211 139.993H116.409L115.26 143.2H107.043V143.002H107.301C107.644 143.002 107.934 142.883 108.172 142.646C108.423 142.395 108.555 142.098 108.568 141.755V130.786C108.568 130.442 108.443 130.152 108.192 129.914C107.941 129.664 107.644 129.538 107.301 129.538H107.063L107.043 129.34H112.785C113.076 129.34 113.379 129.32 113.696 129.281C114.026 129.241 114.33 129.195 114.607 129.142C114.884 129.089 115.082 129.037 115.201 128.984V131.479H115.003V131.122C115.003 130.805 114.891 130.535 114.666 130.31C114.485 130.118 114.269 129.999 114.018 129.954H109.855Z" fill="white"/>
<path d="M104.632 140.527L104.87 137.419H104.712C104.566 138.765 104.223 139.841 103.682 140.646C103.141 141.438 102.468 142.012 101.662 142.369C100.87 142.712 100.006 142.883 99.0686 142.883C97.9598 142.857 96.983 142.567 96.1382 142.012C95.3066 141.458 94.6532 140.686 94.178 139.696C93.716 138.706 93.485 137.551 93.485 136.231C93.485 134.911 93.716 133.762 94.178 132.785C94.6532 131.795 95.3132 131.03 96.158 130.489C97.016 129.934 98.0258 129.657 99.1874 129.657C100.375 129.657 101.418 129.961 102.316 130.568C103.213 131.162 103.807 132.04 104.098 133.201H104.276L103.88 130.409C103.299 130.027 102.613 129.71 101.821 129.459C101.042 129.195 100.164 129.063 99.1874 129.063C97.7354 129.063 96.4682 129.367 95.3858 129.974C94.3166 130.568 93.485 131.406 92.891 132.488C92.297 133.558 92 134.812 92 136.25C92 137.716 92.297 138.989 92.891 140.072C93.4982 141.141 94.3364 141.973 95.4056 142.567C96.4748 143.161 97.6958 143.464 99.0686 143.477C99.9794 143.477 100.785 143.352 101.484 143.101C102.197 142.837 102.811 142.487 103.326 142.052C103.854 141.603 104.289 141.095 104.632 140.527Z" fill="white"/>
<path d="M216.399 156.241V159.258H218.419C218.585 159.258 218.708 159.211 218.787 159.116C218.867 159.013 218.906 158.894 218.906 158.759V158.605H219.037V160.268H218.906V160.114C218.906 159.979 218.867 159.864 218.787 159.769C218.708 159.666 218.585 159.615 218.419 159.615H216.399V162.632H218.205C218.601 162.632 218.918 162.577 219.156 162.466C219.401 162.347 219.599 162.189 219.75 161.991C219.9 161.785 220.031 161.555 220.142 161.302H220.26L219.607 163H214.784V162.882H214.95C215.148 162.882 215.31 162.818 215.437 162.692C215.564 162.565 215.631 162.414 215.639 162.24V156.621C215.631 156.439 215.564 156.288 215.437 156.169C215.31 156.051 215.148 155.991 214.95 155.991H214.784V155.872H218.229C218.474 155.872 218.736 155.853 219.013 155.813C219.29 155.766 219.48 155.722 219.583 155.682V157.025H219.453V156.847C219.453 156.68 219.397 156.538 219.286 156.419C219.183 156.3 219.041 156.241 218.859 156.241H216.399Z" fill="white"/>
<path d="M211 155.789C210.683 155.734 210.342 155.706 209.978 155.706C209.202 155.706 208.521 155.857 207.934 156.158C207.348 156.459 206.893 156.886 206.568 157.441C206.244 157.995 206.081 158.66 206.081 159.436C206.081 160.205 206.244 160.866 206.568 161.42C206.893 161.975 207.344 162.403 207.923 162.703C208.509 163.004 209.194 163.159 209.978 163.167C210.54 163.167 211.039 163.088 211.475 162.929C211.918 162.771 212.298 162.573 212.615 162.335C212.932 162.098 213.181 161.864 213.364 161.634V160.209C213.364 159.892 213.542 159.733 213.898 159.733H214.065V159.615H211.891V159.733H212.057C212.231 159.733 212.366 159.773 212.461 159.852C212.564 159.932 212.611 160.046 212.603 160.197L212.591 161.777C212.346 162.014 212.081 162.212 211.795 162.371C211.518 162.521 211.229 162.632 210.928 162.703C210.627 162.775 210.31 162.81 209.978 162.81C209.376 162.81 208.845 162.676 208.386 162.406C207.927 162.129 207.57 161.737 207.317 161.23C207.063 160.723 206.937 160.126 206.937 159.436C206.937 158.74 207.063 158.142 207.317 157.643C207.57 157.136 207.923 156.748 208.374 156.478C208.833 156.201 209.364 156.063 209.966 156.063C210.52 156.063 210.996 156.138 211.392 156.288C211.788 156.431 212.108 156.653 212.354 156.954C212.607 157.255 212.789 157.639 212.9 158.106H213.007L212.746 156.431C212.485 156.265 212.207 156.13 211.914 156.027C211.629 155.916 211.324 155.837 211 155.789Z" fill="white"/>
<path fill-rule="evenodd" clip-rule="evenodd" d="M201.775 155.706L204.682 162.133H204.686C204.805 162.403 204.951 162.597 205.126 162.715C205.3 162.826 205.466 162.882 205.625 162.882H205.72V163H203.284V162.882H203.379C203.514 162.882 203.637 162.818 203.748 162.692C203.847 162.571 203.867 162.41 203.807 162.207L203.143 160.589H200.142L199.458 162.207C199.399 162.41 199.419 162.571 199.518 162.692C199.629 162.818 199.756 162.882 199.898 162.882H199.993V163H197.594C197.159 163 196.798 162.945 196.513 162.834C196.236 162.723 196.01 162.589 195.836 162.43C195.662 162.264 195.511 162.106 195.385 161.955C195.353 161.915 195.278 161.816 195.159 161.658C195.048 161.492 194.925 161.314 194.791 161.123C194.656 160.933 194.533 160.763 194.422 160.613C194.311 160.454 194.244 160.359 194.22 160.327C194.062 160.122 193.88 159.939 193.674 159.781C193.468 159.615 193.25 159.532 193.02 159.532V159.413L193.211 159.425C193.337 159.425 193.5 159.421 193.698 159.413C193.919 159.405 194.141 159.389 194.363 159.365C194.585 159.334 194.791 159.246 194.981 159.104C195.179 158.961 195.333 158.724 195.444 158.391C195.476 158.304 195.499 158.201 195.515 158.082C195.531 157.963 195.535 157.841 195.527 157.714C195.519 157.492 195.476 157.294 195.396 157.12C195.325 156.946 195.218 156.795 195.076 156.668C194.941 156.542 194.779 156.443 194.589 156.371C194.399 156.3 194.185 156.261 193.947 156.253C193.575 156.237 193.25 156.233 192.973 156.241C192.762 156.247 192.631 156.248 192.581 156.245V162.24C192.589 162.414 192.656 162.565 192.783 162.692C192.91 162.818 193.068 162.882 193.258 162.882H193.412L193.424 163H190.989V162.882H191.155C191.345 162.882 191.504 162.818 191.63 162.692C191.732 162.59 191.795 162.474 191.821 162.342V156.515C191.795 156.38 191.732 156.265 191.63 156.169C191.504 156.051 191.345 155.991 191.155 155.991H190.989V155.872H193.971C194.343 155.872 194.676 155.916 194.969 156.003C195.27 156.09 195.523 156.217 195.729 156.383C195.943 156.55 196.105 156.752 196.216 156.989C196.327 157.227 196.382 157.496 196.382 157.797C196.382 158.13 196.303 158.439 196.145 158.724C195.986 159.009 195.765 159.242 195.48 159.425C195.202 159.607 194.886 159.718 194.529 159.757C194.664 159.813 194.818 159.935 194.993 160.126C195.175 160.316 195.329 160.502 195.456 160.684L195.61 160.898L195.762 161.095L196.002 161.409C196.169 161.607 196.331 161.797 196.489 161.979C196.656 162.161 196.806 162.319 196.941 162.454C197.083 162.589 197.234 162.696 197.392 162.775C197.536 162.836 197.696 162.871 197.875 162.88C198.024 162.869 198.175 162.814 198.33 162.715C198.48 162.614 198.611 162.456 198.726 162.244L201.205 156.93L201.265 156.787C201.312 156.692 201.364 156.577 201.419 156.443C201.482 156.3 201.538 156.162 201.585 156.027C201.633 155.892 201.661 155.785 201.669 155.706H201.775ZM201.665 156.985L202.997 160.232H200.293L201.665 156.985Z" fill="white"/>
<path fill-rule="evenodd" clip-rule="evenodd" d="M185.907 155.706C186.461 155.706 186.98 155.797 187.463 155.979C187.954 156.154 188.382 156.407 188.746 156.74C189.119 157.072 189.408 157.468 189.614 157.928C189.82 158.379 189.923 158.882 189.923 159.436C189.923 159.991 189.82 160.498 189.614 160.957C189.408 161.409 189.119 161.801 188.746 162.133C188.382 162.466 187.954 162.723 187.463 162.905C186.98 163.08 186.461 163.167 185.907 163.167C185.353 163.167 184.834 163.08 184.351 162.905C183.868 162.723 183.44 162.466 183.068 162.133C182.703 161.801 182.418 161.409 182.212 160.957C182.007 160.498 181.904 159.991 181.904 159.436C181.904 158.882 182.007 158.379 182.212 157.928C182.418 157.468 182.703 157.072 183.068 156.74C183.44 156.407 183.868 156.154 184.351 155.979C184.834 155.797 185.353 155.706 185.907 155.706ZM185.907 162.81C186.493 162.81 187.024 162.668 187.499 162.383C187.974 162.098 188.35 161.702 188.628 161.195C188.905 160.688 189.043 160.102 189.043 159.436C189.043 158.763 188.905 158.177 188.628 157.678C188.35 157.171 187.974 156.775 187.499 156.49C187.024 156.205 186.493 156.063 185.907 156.063C185.329 156.063 184.802 156.205 184.327 156.49C183.852 156.775 183.476 157.171 183.198 157.678C182.921 158.177 182.783 158.763 182.783 159.436C182.783 160.102 182.921 160.688 183.198 161.195C183.476 161.702 183.852 162.098 184.327 162.383C184.802 162.668 185.329 162.81 185.907 162.81Z" fill="white"/>
<path d="M177.854 156.217V162.24C177.846 162.414 177.775 162.565 177.64 162.692C177.506 162.818 177.343 162.882 177.153 162.882H177.011V163H179.458V162.882H179.327C179.137 162.882 178.975 162.818 178.84 162.692C178.706 162.565 178.634 162.414 178.626 162.24V156.217H180.777C180.959 156.225 181.101 156.288 181.204 156.407C181.315 156.518 181.371 156.657 181.371 156.823V157.013H181.501V155.671C181.43 155.694 181.319 155.722 181.169 155.754C181.018 155.785 180.852 155.813 180.67 155.837C180.496 155.853 180.329 155.861 180.171 155.861H176.31C176.151 155.861 175.981 155.853 175.799 155.837C175.617 155.813 175.45 155.785 175.3 155.754C175.157 155.722 175.051 155.694 174.979 155.671V157.013H175.11V156.823C175.11 156.657 175.161 156.518 175.264 156.407C175.375 156.288 175.522 156.225 175.704 156.217H177.854Z" fill="white"/>
<path d="M172.145 154.518C172.271 154.518 172.406 154.526 172.548 154.542C172.699 154.558 172.842 154.582 172.976 154.613C173.003 154.618 173.029 154.622 173.055 154.627L173.107 154.637H173.63V156.098H173.523C173.523 155.718 173.392 155.421 173.131 155.207C172.869 154.985 172.552 154.875 172.18 154.875C171.745 154.875 171.392 155.013 171.123 155.29C170.854 155.56 170.719 155.876 170.719 156.241C170.719 156.391 170.751 156.569 170.814 156.775C170.885 156.973 171.012 157.16 171.194 157.334L173.535 159.496C173.772 159.718 173.931 159.955 174.01 160.209C174.089 160.462 174.129 160.708 174.129 160.945C174.129 161.603 173.927 162.137 173.523 162.549C173.127 162.961 172.588 163.167 171.907 163.167C171.717 163.167 171.491 163.147 171.23 163.107C170.976 163.068 170.727 163.001 170.481 162.905C170.244 162.802 170.046 162.672 169.887 162.513C169.864 162.387 169.852 162.228 169.852 162.038C169.852 161.848 169.868 161.65 169.899 161.444C169.931 161.23 169.974 161.036 170.03 160.862H170.137C170.097 161.266 170.149 161.618 170.291 161.919C170.434 162.22 170.64 162.45 170.909 162.608C171.186 162.759 171.499 162.826 171.848 162.81C172.283 162.787 172.655 162.636 172.964 162.359C173.281 162.074 173.439 161.694 173.439 161.219C173.439 160.989 173.4 160.783 173.321 160.601C173.241 160.411 173.127 160.248 172.976 160.114L170.695 157.999C170.458 157.777 170.291 157.536 170.196 157.274C170.101 157.005 170.054 156.756 170.054 156.526C170.054 156.193 170.133 155.872 170.291 155.564C170.45 155.255 170.683 155.005 170.992 154.815C171.309 154.617 171.693 154.518 172.145 154.518Z" fill="white"/>
<path fill-rule="evenodd" clip-rule="evenodd" d="M163.027 154.625C162.773 154.554 162.512 154.518 162.243 154.518C161.878 154.518 161.55 154.57 161.257 154.673C160.964 154.776 160.71 154.918 160.496 155.1C160.29 155.282 160.132 155.496 160.021 155.742C159.91 155.987 159.855 156.257 159.855 156.55C159.855 157.009 159.938 157.421 160.104 157.785C160.162 157.904 160.228 158.022 160.302 158.139C160.174 158.203 160.053 158.275 159.938 158.355C159.78 158.466 159.633 158.589 159.499 158.724C159.372 158.85 159.261 158.997 159.166 159.163C159.071 159.33 158.996 159.512 158.94 159.71C158.893 159.9 158.869 160.11 158.869 160.339C158.869 160.696 158.92 161.02 159.023 161.314C159.126 161.599 159.277 161.856 159.475 162.086C159.681 162.307 159.93 162.498 160.223 162.656C160.516 162.806 160.853 162.921 161.233 163C161.621 163.08 162.045 163.119 162.504 163.119C162.956 163.119 163.363 163.052 163.728 162.917C164.092 162.775 164.405 162.577 164.666 162.323L164.701 162.29C165.026 162.547 165.351 162.724 165.676 162.822C166.017 162.925 166.326 162.981 166.603 162.989C166.888 162.997 167.106 163 167.256 163V162.882C166.955 162.858 166.662 162.763 166.377 162.597C166.1 162.43 165.827 162.232 165.557 162.003C165.43 161.891 165.304 161.782 165.178 161.675C165.221 161.601 165.26 161.524 165.296 161.444C165.454 161.104 165.553 160.735 165.593 160.339C165.633 159.943 165.609 159.528 165.522 159.092C165.49 158.934 165.51 158.803 165.581 158.7C165.66 158.597 165.787 158.545 165.961 158.545H166.139V158.427H163.775V158.545H163.954C164.144 158.545 164.298 158.597 164.417 158.7C164.544 158.803 164.646 158.934 164.726 159.092C164.868 159.377 164.947 159.686 164.963 160.019C164.979 160.343 164.936 160.668 164.833 160.993C164.8 161.096 164.762 161.196 164.718 161.293C164.404 161.03 164.117 160.787 163.858 160.565C163.589 160.327 163.348 160.114 163.134 159.924C162.928 159.726 162.738 159.551 162.564 159.401C161.954 158.854 161.486 158.367 161.162 157.94C160.837 157.512 160.675 157.049 160.675 156.55C160.675 156.067 160.821 155.667 161.114 155.35C161.415 155.033 161.791 154.875 162.243 154.875C162.583 154.875 162.876 154.95 163.122 155.1C163.375 155.243 163.573 155.453 163.716 155.73C163.858 155.999 163.93 156.324 163.93 156.704H164.049L164.262 155.362C164.12 155.187 163.942 155.041 163.728 154.922C163.514 154.795 163.28 154.696 163.027 154.625ZM164.295 161.959L163.823 161.575C163.577 161.361 163.348 161.167 163.134 160.993C162.928 160.811 162.734 160.64 162.552 160.482C162.37 160.316 162.191 160.153 162.017 159.995C161.558 159.567 161.166 159.183 160.841 158.842C160.716 158.706 160.603 158.568 160.501 158.43C160.391 158.531 160.294 158.641 160.211 158.759C160.1 158.91 160.009 159.072 159.938 159.246C159.867 159.413 159.815 159.591 159.784 159.781C159.752 159.963 159.736 160.149 159.736 160.339C159.736 160.696 159.796 161.024 159.914 161.325C160.041 161.618 160.219 161.872 160.449 162.086C160.687 162.3 160.976 162.466 161.316 162.585C161.665 162.704 162.061 162.763 162.504 162.763C162.908 162.763 163.264 162.684 163.573 162.525C163.859 162.375 164.1 162.187 164.295 161.959Z" fill="white"/>
<path d="M151.326 156.241V159.258H153.346C153.512 159.258 153.635 159.211 153.714 159.116C153.793 159.013 153.833 158.894 153.833 158.759V158.605H153.964V160.268H153.833V160.114C153.833 159.979 153.793 159.864 153.714 159.769C153.635 159.666 153.512 159.615 153.346 159.615H151.326V162.632H153.132C153.528 162.632 153.845 162.577 154.082 162.466C154.328 162.347 154.526 162.189 154.676 161.991C154.827 161.785 154.958 161.555 155.068 161.302H155.187L154.534 163H149.711V162.882H149.877C150.075 162.882 150.237 162.818 150.364 162.692C150.491 162.565 150.558 162.414 150.566 162.24V156.621C150.558 156.439 150.491 156.288 150.364 156.169C150.237 156.051 150.075 155.991 149.877 155.991H149.711V155.872H153.156C153.401 155.872 153.663 155.853 153.94 155.813C154.217 155.766 154.407 155.722 154.51 155.682V157.025H154.379V156.847C154.379 156.68 154.324 156.538 154.213 156.419C154.11 156.3 153.968 156.241 153.785 156.241H151.326Z" fill="white"/>
<path d="M145.247 162.632V156.633C145.247 156.451 145.314 156.3 145.449 156.181C145.592 156.055 145.758 155.991 145.948 155.991H146.091V155.872H143.631V155.991H143.774C143.972 155.991 144.138 156.055 144.273 156.181C144.408 156.3 144.479 156.451 144.487 156.633V162.24C144.479 162.414 144.411 162.565 144.285 162.692C144.158 162.818 143.996 162.882 143.798 162.882H143.631V163H148.455L149.108 161.302H148.989C148.878 161.555 148.748 161.785 148.597 161.991C148.447 162.189 148.249 162.347 148.003 162.466C147.766 162.577 147.449 162.632 147.053 162.632H145.247Z" fill="white"/>
<path fill-rule="evenodd" clip-rule="evenodd" d="M139.092 155.706L141.999 162.133H142.003C142.122 162.403 142.268 162.597 142.442 162.715C142.617 162.826 142.783 162.882 142.941 162.882H143.036V163H140.601V162.882H140.696C140.831 162.882 140.953 162.818 141.064 162.692C141.163 162.571 141.183 162.41 141.124 162.207L140.46 160.589H137.459L136.775 162.207C136.716 162.41 136.736 162.571 136.835 162.692C136.946 162.818 137.073 162.882 137.215 162.882H137.31V163H135.041V162.882H135.136C135.302 162.882 135.473 162.826 135.647 162.715C135.796 162.614 135.928 162.456 136.043 162.244L138.522 156.93L138.581 156.787C138.629 156.692 138.68 156.577 138.736 156.443C138.799 156.3 138.855 156.162 138.902 156.027C138.95 155.892 138.977 155.785 138.985 155.706H139.092ZM138.981 156.985L140.314 160.232H137.609L138.981 156.985Z" fill="white"/>
<path d="M132.975 155.73C132.809 155.714 132.615 155.706 132.393 155.706C132.029 155.706 131.696 155.785 131.395 155.944C131.102 156.094 130.868 156.3 130.694 156.562C130.52 156.823 130.433 157.116 130.433 157.441C130.433 157.647 130.472 157.864 130.551 158.094C130.631 158.324 130.781 158.534 131.003 158.724L133.379 160.553C133.529 160.688 133.636 160.834 133.7 160.993C133.771 161.143 133.807 161.314 133.807 161.504C133.807 161.892 133.664 162.205 133.379 162.442C133.102 162.672 132.718 162.795 132.227 162.81C131.878 162.818 131.573 162.759 131.312 162.632C131.05 162.498 130.852 162.304 130.718 162.05C130.583 161.797 130.532 161.492 130.563 161.135H130.421C130.373 161.286 130.334 161.456 130.302 161.646C130.278 161.836 130.266 162.018 130.266 162.193C130.266 162.359 130.278 162.498 130.302 162.608C130.452 162.735 130.643 162.842 130.872 162.929C131.102 163.008 131.347 163.068 131.609 163.107C131.878 163.147 132.128 163.167 132.357 163.167C132.745 163.167 133.098 163.084 133.415 162.917C133.739 162.743 133.997 162.509 134.187 162.216C134.377 161.923 134.468 161.603 134.46 161.254C134.452 161.024 134.405 160.795 134.317 160.565C134.23 160.327 134.096 160.133 133.914 159.983L131.514 158.13C131.395 158.027 131.3 157.924 131.229 157.821C131.165 157.718 131.118 157.615 131.086 157.512C131.062 157.401 131.05 157.294 131.05 157.191C131.043 156.874 131.177 156.609 131.454 156.395C131.739 156.173 132.08 156.063 132.476 156.063C132.943 156.063 133.288 156.158 133.51 156.348C133.731 156.53 133.842 156.783 133.842 157.108H133.985L133.973 155.932L133.968 155.93L133.961 155.813H133.55C133.504 155.804 133.455 155.796 133.403 155.789C133.284 155.766 133.141 155.746 132.975 155.73Z" fill="white"/>
<path d="M125.397 156.241V159.258H127.416C127.583 159.258 127.705 159.211 127.785 159.116C127.864 159.013 127.903 158.894 127.903 158.759V158.605H128.034V160.268H127.903V160.114C127.903 159.979 127.864 159.864 127.785 159.769C127.705 159.666 127.583 159.615 127.416 159.615H125.397V162.632H127.203C127.599 162.632 127.915 162.577 128.153 162.466C128.398 162.347 128.596 162.189 128.747 161.991C128.897 161.785 129.028 161.555 129.139 161.302H129.258L128.604 163H123.781V162.882H123.947C124.145 162.882 124.308 162.818 124.434 162.692C124.561 162.565 124.629 162.414 124.636 162.24V156.621C124.629 156.439 124.561 156.288 124.434 156.169C124.308 156.051 124.145 155.991 123.947 155.991H123.781V155.872H127.226C127.472 155.872 127.733 155.853 128.01 155.813C128.288 155.766 128.478 155.722 128.581 155.682V157.025H128.45V156.847C128.45 156.68 128.394 156.538 128.284 156.419C128.181 156.3 128.038 156.241 127.856 156.241H125.397Z" fill="white"/>
<path d="M119.368 154.684H116.16V154.803H116.315C116.521 154.803 116.695 154.879 116.837 155.029C116.988 155.172 117.067 155.346 117.075 155.552V162.133C117.067 162.339 116.988 162.517 116.837 162.668C116.695 162.81 116.521 162.882 116.315 162.882H116.16V163H118.75V162.882H118.608C118.402 162.882 118.223 162.81 118.073 162.668C117.922 162.517 117.847 162.339 117.847 162.133V155.053H118.631C118.869 155.045 119.099 155.049 119.32 155.065C119.764 155.088 120.116 155.263 120.378 155.587C120.647 155.904 120.786 156.332 120.793 156.87C120.801 156.997 120.797 157.128 120.782 157.262C120.766 157.389 120.746 157.496 120.722 157.583C120.611 157.94 120.449 158.205 120.235 158.379C120.021 158.553 119.792 158.668 119.546 158.724C119.301 158.779 119.075 158.811 118.869 158.819C118.695 158.827 118.544 158.831 118.417 158.831L118.239 158.819V158.938C118.453 158.938 118.651 159.021 118.833 159.187C119.015 159.353 119.182 159.535 119.332 159.734C119.341 159.746 119.362 159.777 119.395 159.827C119.424 159.869 119.463 159.925 119.51 159.995C119.613 160.137 119.736 160.312 119.879 160.518C120.021 160.723 120.164 160.933 120.306 161.147C120.457 161.353 120.584 161.531 120.687 161.682C120.797 161.832 120.865 161.923 120.888 161.955C121.015 162.106 121.17 162.264 121.352 162.43C121.534 162.589 121.756 162.723 122.017 162.834C122.286 162.945 122.603 163 122.967 163H123.621V162.882C123.391 162.882 123.181 162.842 122.991 162.763C122.809 162.684 122.639 162.577 122.48 162.442C122.322 162.307 122.164 162.153 122.005 161.979C121.886 161.852 121.744 161.682 121.578 161.468C121.411 161.254 121.245 161.036 121.079 160.815C120.92 160.593 120.786 160.407 120.675 160.256L120.52 160.019C120.401 159.86 120.263 159.698 120.104 159.532C119.946 159.357 119.799 159.242 119.665 159.187C120.045 159.187 120.386 159.08 120.687 158.866C120.995 158.645 121.237 158.359 121.411 158.011C121.593 157.662 121.684 157.298 121.684 156.918C121.684 156.569 121.629 156.261 121.518 155.991C121.415 155.714 121.265 155.48 121.067 155.29C120.869 155.092 120.623 154.942 120.33 154.839C120.045 154.736 119.724 154.684 119.368 154.684Z" fill="white"/>
</svg>
